<?xml version="1.0" encoding="utf-8"?><svg xmlns="http://www.w3.org/2000/svg"><symbol class="svg-icon" viewBox="0 0 120 30" id="icon-abbot"><defs><style>.a{fill:#c0d1d2}</style></defs><title>abbot_logo</title><path class="a" d="M5 10a5 5 0 0 0-5 5v10a5 5 0 0 0 5 5h27.52a5 5 0 0 0 5-5V5a5 5 0 0 0-5-5H0v5h30.88a1.61 1.61 0 0 1 1.62 1.61v16.77A1.62 1.62 0 0 1 30.89 25H6.61A1.62 1.62 0 0 1 5 23.38v-6.77A1.61 1.61 0 0 1 6.61 15H27.5v-5H5zM101.51 17.08c0 3.73-2.54 5.8-6 5.8s-6-2.07-6-5.8 2.54-5.8 6-5.8 6 2.07 6 5.8zm-24.83 5.46h2.62l.7-1.45a4 4 0 0 0 3.59 1.79c3.5 0 4.8-2.73 4.8-5.8s-1.3-5.8-4.8-5.8a4.23 4.23 0 0 0-3 1.61V7.08h-5.82v1.87h1.07c.68 0 .84.35.84 1v12.59zm-13.08 0h2.62l.67-1.45a4 4 0 0 0 3.59 1.79c3.5 0 4.8-2.73 4.8-5.8s-1.3-5.8-4.8-5.8a4.24 4.24 0 0 0-3 1.61V7.08h-5.79v1.87h1.07c.68 0 .84.35.84 1v12.59zm-10.91-12l1.68 5H51zM51.3 7.08l-3.9 11.66c-.47 1.42-.79 1.75-1.61 1.75H45v2.05h6.85v-2.05h-.67c-.63 0-1.45-.07-1.45-.45a5.33 5.33 0 0 1 .35-1.49l.28-.93h4.76l.49 1.67a3.12 3.12 0 0 1 .12.85c0 .25-.58.35-1.28.35h-.7v2.05h8.51v-2.05h-.8c-.81 0-1.14-.33-1.6-1.75L56 7.08h-4.7zm19.86 10c0 2.38-.53 3.8-1.84 3.8s-1.84-1.42-1.84-3.8.54-3.8 1.84-3.8 1.84 1.43 1.84 3.8zm24.34-3.94c-1.4 0-1.89 1.19-1.89 3.94S94.1 21 95.5 21s1.88-1.19 1.88-3.94-.49-3.92-1.88-3.92zm22.64 4.13v1.82c0 1.07-.23 1.71-1.12 1.71a.79.79 0 0 1-.79-.89v-6.42h2.86v-1.86h-2.86V7.3h-2.31c-.19 1.93-.79 4.33-3.12 4.33h-3.64V7.3h-2.31c-.19 1.93-.8 4.33-3.12 4.33v1.87h1.56v5.85c0 2.38 1.33 3.54 3.73 3.54 2.8 0 3.92-1.26 3.92-3.54v-2.08h-1.86v1.82c0 1.07-.24 1.71-1.12 1.71a.79.79 0 0 1-.8-.89v-6.42h5.2v5.85c0 2.38 1.32 3.54 3.73 3.54 2.8 0 3.92-1.26 3.92-3.54v-2.07h-1.87zm-33.89-.19c0 2.38-.53 3.8-1.84 3.8s-1.84-1.42-1.84-3.8.54-3.8 1.84-3.8 1.83 1.43 1.83 3.8z"/></symbol><symbol id="icon-arrow-bird" class="svg-icon" viewBox="0 0 40.08732604980469 17.928380966186523"><style>.st0{fill:#231f20}</style><path class="st0" d="M1.6 5.6c6.8 1.6 12 5.7 15.8 11.3.9 1.4 3 1.4 3.9 0 1.9-3.1 4.1-6.2 7.1-8.4 2.9-2.2 6.5-3.4 10.1-4.2 2.8-.7 1.6-4.9-1.2-4.2-4.2 1-8.3 2.5-11.8 5.1-3.4 2.6-5.8 6-8 9.5h3.9C16.9 8.1 10.7 3.3 2.8 1.4 0 .7-1.2 5 1.6 5.6z"/></symbol><symbol class="svg-icon" viewBox="0 0 39.96530532836914 21.941423416137695" id="icon-bed"><path d="M39.9 10.9c0-.1 0-.2-.1-.2 0-.1-.1-.2-.2-.2-.5-.1-1-.2-1.5-.1-.2-.1-.5 0-.5.3v1.6h-.1-.3V9.4c0-.2-.1-.8-1-.7-.3 0-.6.1-.9.1-.4 0-.9 0-1.3.1-1 0-2-.1-3-.1-2-.2-4.1-.4-6.1-.3-2 0-4 .3-6 .3s-4-.1-6-.2c-.2 0-.3.2-.3.4-.7-.7-1.6-1.3-2.5-1.7-1.2-.5-2.6-.7-4-.7-1 0-2.3.1-3.1.8-.3 0-.3.1-.2.3V8c1.5 2.1 3.6 3.6 6.1 4.2H2.6c.1-3.8.1-7.8.2-11.7 0-.1 0-.1-.1-.2.1-.1 0-.3-.3-.3H1.1C.8 0 .5.2.4.5V.8C.2 7.6.1 14.5 0 21.4c0 .1 0 .2.1.2 0 .1.1.2.2.2.5.1 1 .2 1.5.1.2.1.5 0 .5-.3 0-1.5.1-3.1.1-4.6 1.3 0 10.5-.1 13.8 0 5.8.1 21.2 0 21.2 0h.1c0 .8 0 2-.1 4.4 0 .1 0 .1.1.2 0 .2.1.3.3.3h1.3c.3 0 .6-.2.7-.5v-.1-.2c.3-6.7.1-3.3.1-10.2zM1.7 21.3c-.3 0-.7 0-1-.1L1 .7V.6c0 .1 0 0 .1 0h1c-.1 7-.3 13.8-.4 20.7zm11.4-9.2c0-1 .2-1.9.1-2.9 2 .1 4 .2 5.9.2 2.1 0 4.3-.3 6.4-.3 2.5 0 4.9.4 7.3.5H35.9c.3 0 .5.2.5.4v4.7c-3.9.6-7.9 0-11.8-.2-3.8-.2-7.7 0-11.5.1 0-1-.1-1.7 0-2.5zM3.5 7.8c.1-.1.1-.1.1-.2.7-.4 1.8-.4 2.6-.4 1.1 0 2.2.2 3.2.6 1.2.4 2.4 1.2 3.1 2.3 0 .6-.1 1.2-.1 1.8v.2c-3.5 0-6.8-1.5-8.9-4.3zm33.9 8.6s-9.8.1-13.1 0c-5.2-.1-20 0-21.8 0 0-1.1 0-2.3.1-3.4h9.8c0 .6.1 1.3.2 1.9 0 .3.4.4.6.3 3.9-.2 7.8-.3 11.8-.1 3.9.2 7.8.7 11.7.2.2.1.5 0 .5-.3v-1.9h.4c-.1 1.8-.1 2.5-.2 3.3.1 0 .1 0 0 0zm1.8 4.9l-.2.1h-1c.1-6.9-.1-3.4.1-10.3.3 0 .7 0 1 .1.1 6.7.3 3.2.1 10.1z"/><path d="M13.7 14.8c-.2.1-.4.3-.6.5-.2.2.1.4.2.2.2-.2.4-.3.6-.4.2-.1 0-.4-.2-.3zM14.8 14.9c-.3.2-.6.4-1 .6-.2.1 0 .4.2.3.4-.1.7-.3 1-.6.1-.2-.1-.4-.2-.3zM15.8 15l-.9.6c-.2.1 0 .4.2.3l.9-.6c.2-.2 0-.5-.2-.3zM17.2 14.9c-.3.2-.6.3-.9.5-.2.1 0 .4.2.3.3-.2.6-.3.9-.5.2-.1 0-.4-.2-.3zM18.3 15c-.5.2-1 .5-1.5.7-.2.1 0 .4.2.3.5-.2 1-.5 1.5-.7.2-.1 0-.4-.2-.3zM20.2 14.7c-.6.4-1.2.7-1.8 1.2-.2.1 0 .4.2.3l1.8-1.2c.1-.1 0-.4-.2-.3zM22.1 14.6c-.8.6-1.7 1.2-2.6 1.7-.2.1 0 .4.2.3.9-.5 1.8-1.1 2.6-1.7.2-.1 0-.4-.2-.3zM23.2 14.7c-.8.5-1.5 1-2.3 1.5-.2.1 0 .4.2.3.8-.5 1.5-1 2.3-1.5.2-.1 0-.4-.2-.3zM24.5 14.9c-.9.5-1.7.9-2.6 1.4-.2.1 0 .4.2.3.9-.5 1.7-.9 2.6-1.4.1-.1 0-.4-.2-.3zM25.7 15.1c-.6.5-1.2.9-1.8 1.3-.2.1 0 .4.2.3.7-.4 1.3-.9 1.9-1.4.1-.1-.1-.4-.3-.2zM26.9 15.1c-.5.5-1 .9-1.5 1.3-.2.1.1.4.2.2.5-.4 1-.9 1.5-1.3.3-.1 0-.3-.2-.2zM28.1 15.3c-.4.4-.9.7-1.4 1-.2.1 0 .4.2.3.5-.3 1-.7 1.5-1.1.1-.1-.2-.3-.3-.2zM29.6 15.3c-.6.4-1.1.8-1.7 1.1-.2.1 0 .4.2.3.6-.4 1.1-.8 1.7-1.1.1-.1-.1-.4-.2-.3zM30.7 15.3c-.4.3-.8.7-1.2 1-.2.1 0 .4.2.3.4-.3.9-.7 1.3-1 .1-.2-.2-.4-.3-.3zM32.1 15.2c-.3.3-.5.7-.8 1-.1.2.1.4.2.2.3-.3.5-.7.8-1 .2-.1-.1-.4-.2-.2zM33.2 15.4c-.3.3-.7.6-1 .9-.2.1 0 .4.2.3.4-.3.7-.6 1.1-.9.1-.2-.1-.5-.3-.3zM34.9 15.1c-.5.5-1 .9-1.6 1.2-.2.1 0 .4.2.3.6-.4 1.2-.8 1.7-1.3.1-.1-.2-.4-.3-.2zM36.3 15.3c-.4.4-.8.7-1.3 1-.2.1 0 .4.2.3.5-.3.9-.6 1.3-1 .2-.2 0-.5-.2-.3zM37.6 13.2l-.7.7c-.2.2.1.4.2.2l.7-.7c.2-.1 0-.4-.2-.2zM37.5 14.5c-.4.6-.8 1.1-1.1 1.7-.1.2.2.4.3.2.4-.6.7-1.1 1.1-1.7.1-.2-.2-.4-.3-.2zM37.4 15.6c-.1.2-.2.4-.4.6-.1.2.2.4.3.2.1-.2.2-.4.4-.6.1-.3-.2-.4-.3-.2zM4.2 8.1c-.2 0-.4.1-.6.2 0 .1-.1.2 0 .2 0 .1.2.1.2.1.1-.1.3-.1.4-.2.2 0 .2-.3 0-.3zM5.2 8.3l-.9.3c-.2.1-.1.4.1.3.3-.1.6-.2.8-.3.3-.1.2-.4 0-.3zM5.9 8.7c-.3.2-.7.3-1.1.5-.2.1-.1.4.1.3.4-.2.8-.3 1.2-.6.2-.1 0-.4-.2-.2zM6.7 9.1c-.3.2-.8.5-1.2.7-.2.1 0 .4.2.3.4-.2.9-.5 1.3-.8.2-.1-.1-.4-.3-.2zM7.9 9.5c-.4.4-.8.6-1.2.9-.2.1 0 .4.2.3.5-.2.9-.5 1.3-.9.1-.2-.2-.5-.3-.3zM9 9.9c-.4.4-.9.7-1.3 1-.2.1 0 .4.2.3.5-.3 1-.6 1.4-1 .1-.2-.2-.4-.3-.3zM10 10.3c-.4.4-.9.7-1.4 1-.2.1 0 .4.2.3.5-.3 1-.6 1.5-1 .1-.3-.2-.5-.3-.3zM11 10.4c-.6.3-1.1.7-1.7 1-.2.1 0 .4.2.3.6-.3 1.1-.7 1.7-1 .2-.1 0-.4-.2-.3zM11.9 10.8c-.5.4-.9.7-1.5.9-.2.1 0 .4.2.3.5-.3 1.1-.6 1.5-1 .2-.1 0-.3-.2-.2zM12.3 9.2c-.2.1-.4.3-.6.5-.1.1-.1.2 0 .2.1.1.2.1.2 0 .1-.2.3-.3.5-.4.3-.1.1-.4-.1-.3zM12.8 9.8c0-.1-.2-.1-.2-.1l-.6.4c-.1.1-.1.1-.1.2s.2.1.2.1c.2-.1.4-.3.6-.4.1 0 .1-.1.1-.2zM12.6 11.2l-.9.6c-.2.1 0 .4.2.3.3-.2.7-.4 1-.7.1-.1-.2-.4-.3-.2zM2.4.9c-.2.1-.5.2-.7.4-.2.1 0 .4.2.3.2-.2.5-.3.7-.4.2-.1 0-.4-.2-.3zM2.1 1.7l-.4.4c-.2.2.1.5.2.3s.3-.3.5-.5c.2-.1-.1-.4-.3-.2zM2 3c-.1.2-.3.4-.4.5-.2.2.1.5.2.3.2-.2.4-.4.5-.7.2-.1-.1-.3-.3-.1zM2 4c-.1.2-.2.3-.4.4-.1.2.1.4.3.3l.4-.4c.1-.2-.1-.4-.3-.3zM2.1 4.8c-.3.3-.5.6-.7.8-.2.2 0 .4.2.3.2-.3.5-.5.7-.8.2-.2-.1-.4-.2-.3zM2.5 6.1c-.1-.1-.2-.1-.2 0l-.5.5c-.1.1-.1.2 0 .2 0 .1.2.2.2.1.1-.2.3-.3.4-.5.1-.1.1-.2.1-.3zM2.1 7.2c-.2.2-.4.5-.6.7-.2.2.1.4.2.2.2-.3.4-.5.6-.8.2-.1-.1-.3-.2-.1zM2.2 7.9c-.3.3-.5.7-.8 1-.1.2.1.4.3.2.3-.3.5-.6.8-.9.1-.2-.2-.4-.3-.3zM2 9.2c-.3.3-.6.6-.8 1-.1.2.1.4.2.2.3-.3.6-.6.8-1 .2-.1 0-.3-.2-.2zM1.9 10.7c-.1.2-.3.5-.4.7-.1.2.2.4.3.2.1-.2.3-.5.4-.7.2-.3-.1-.4-.3-.2zM1.9 11.6c-.2.3-.4.7-.6 1-.1.2.2.4.3.2.2-.3.4-.7.6-1 .1-.2-.2-.4-.3-.2zM1.9 12.8c-.1-.1-.2 0-.2.1l-.4.5c-.1.1 0 .2.1.2.1.1.2 0 .2-.1L2 13c0-.1 0-.2-.1-.2zM1.8 14c-.2.2-.4.4-.6.7-.1.2.2.4.3.2.2-.2.3-.4.5-.6.2-.2 0-.4-.2-.3zM1.8 14.9l-.6.9c-.2.2.1.3.2.2l.6-.9c.2-.2-.1-.3-.2-.2zM1.6 16.2c-.2.2-.4.4-.6.7-.1.2.2.4.3.2.2-.2.3-.4.5-.6.2-.2 0-.5-.2-.3zM1.8 17.1c-.3.3-.5.6-.8.9-.1.2.1.4.2.2.3-.2.6-.5.8-.8.2-.2-.1-.4-.2-.3zM1.6 18.4c-.1.2-.3.5-.4.7-.1.2.2.4.3.2.1-.2.3-.5.4-.7.1-.2-.2-.4-.3-.2zM1.8 19.5c0-.1-.2-.1-.2-.1L1 20c-.1.2.2.4.3.2.1-.2.3-.4.5-.5 0 0 .1-.1 0-.2zM1.6 20.4c-.3.2-.5.4-.6.6-.1.1 0 .2.1.2.1.1.2 0 .2-.1.2-.2.3-.4.5-.6.2 0-.1-.3-.2-.1zM39.4 11.1c-.2.1-.4.3-.6.4-.2.1 0 .4.2.3.2-.1.4-.3.6-.4.2-.1 0-.4-.2-.3zM39.1 12c-.2.2-.4.4-.6.5-.2.2.1.4.2.2.2-.2.4-.4.6-.5.2-.2 0-.4-.2-.2zM39.4 12.8c-.3.2-.5.5-.7.7-.1.2.1.4.2.2.2-.3.5-.5.7-.7.2-.1-.1-.3-.2-.2zM39.4 14.3c-.4.3-.8.6-1.1 1-.2.2.1.4.2.2.3-.3.7-.6 1-.9.3-.2.1-.5-.1-.3zM39.4 15l-.9.9c-.2.1.1.4.2.2l.9-.9c.2-.1 0-.3-.2-.2zM39.5 16.1c-.3.2-.6.5-.9.8-.1.2.1.4.2.2.2-.3.5-.5.8-.7.3-.1.1-.4-.1-.3zM39.5 17.2l-.9.9c-.2.2.1.4.2.2l.9-.9c.2-.1 0-.3-.2-.2zM39.6 18.2l-.7.6c-.2.1.1.4.2.2.2-.2.5-.4.7-.6.2-.1-.1-.4-.2-.2zM39.4 19.5c-.3.2-.5.4-.7.7-.1.2.2.3.3.2l.6-.6c.2-.2 0-.4-.2-.3zM39.3 20.7c-.2.1-.4.3-.6.5-.1.1 0 .2.1.2.1.1.2 0 .2-.1.1-.2.3-.3.4-.4.3 0 .1-.3-.1-.2zM14.3 8.8c-.1.1-.3.2-.3.3 0 .1 0 .2.1.2s.2 0 .2-.1.1-.1.2-.1 0-.3-.2-.3z"/><path d="M14.7 8.9l-.5.5c-.2.2.1.4.2.2l.5-.5c.2-.1 0-.3-.2-.2zM15.9 9l-.9.9c-.1.2.1.4.2.2l.9-.9c.2-.1-.1-.4-.2-.2zM17.1 9.1c-.5.3-.9.7-1.2 1.1-.1.2.1.4.2.2.3-.4.7-.8 1.1-1.1.3-.1.1-.4-.1-.2zM18.4 9.3c-.1-.1-.2-.1-.2 0-.2.1-.2.1-.3.2 0-.1-.2-.1-.2-.1-.2.1-.4.3-.6.5-.2.2.1.4.2.2l.3-.3v.1c.1.1.2.1.2 0 .1-.1.3-.2.4-.3.2-.1.2-.2.2-.3zM28.3 9c-.1.1-.3.2-.4.3-.2.2.1.4.2.2.1-.1.3-.2.4-.3.2-.1 0-.4-.2-.2zM29.6 8.9c-.3.2-.5.5-.8.7-.2.2.1.4.2.2.3-.2.5-.5.8-.7.2-.2 0-.4-.2-.2zM30.5 9l-1.1 1.1c-.2.2.1.4.2.2l1.1-1.1c.2-.2 0-.4-.2-.2zM31.2 9.3c-.3.2-.5.4-.8.7-.1.2.1.4.2.2.2-.2.4-.5.7-.7.3-.1.1-.4-.1-.2zM32.4 9.1c-.3.2-.5.4-.8.6-.2.1.1.4.2.2.2-.2.5-.4.7-.5.3-.1.1-.4-.1-.3zM33.1 9.3c-.1-.1-.2-.1-.2 0-.1.1-.2.2-.3.2-.1.1-.1.2 0 .2.1.1.2.1.2 0 .1-.1.2-.2.3-.2.1-.1.1-.2 0-.2zM5.5 12.6c0-.1-.2-.1-.2-.1l-.3.3c-.1.2.2.4.3.2 0-.1.1-.1.2-.2 0 0 .1-.1 0-.2zM6 12.5c-.2.2-.3.3-.4.5-.1.2.2.4.3.2.1-.2.2-.3.4-.5.1-.1-.2-.4-.3-.2zM6.8 12.6c-.3.2-.5.4-.7.7-.1.2.2.4.3.2.2-.2.3-.4.6-.6.2-.1 0-.4-.2-.3zM7.9 12.8c-.2.2-.4.4-.7.6-.2.1.1.4.2.2.2-.2.4-.4.7-.6.2-.1-.1-.3-.2-.2zM9 12.7c-.4.2-.6.5-.9.9-.1.2.2.4.3.2.2-.3.5-.5.8-.8.2-.1 0-.4-.2-.3zM10.1 12.8l-.9.9c-.2.1 0 .3.2.2l.9-.9c.2-.1-.1-.4-.2-.2zM11 12.7c-.2.3-.5.6-.7.9-.1.2.1.4.2.2.2-.3.5-.6.7-.9.2-.1-.1-.4-.2-.2zM11.8 12.7l-.8.8c-.2.2.1.4.2.2l.8-.8c.2-.1-.1-.3-.2-.2zM12.7 12.9c-.4.3-.7.7-1 1-.1.2.2.3.3.2.2-.3.4-.5.7-.8-.1-.1-.1-.3 0-.4zM12.6 14.1c-.1.1-.2.1-.3.2-.2.2.1.4.2.2l.2-.2c.2 0 .1-.3-.1-.2z"/></symbol><symbol class="svg-icon" viewBox="0 0 35.99358367919922 35.03480529785156" id="icon-clock"><path d="M17.8 26.8c-.2.6-.1 1.4-.1 2.1 0 .4.7.5.7.1 0-.7.1-1.4-.1-2.1 0-.3-.4-.4-.5-.1zM14.4 26.2c-.3.2-.6.5-.9.8-.2.1-.3.3-.4.5-.1.1-.3.2-.4.4-.3.4.3.8.6.4.2-.3.5-.6.8-.9.3-.3.6-.5.6-1 .1-.2-.1-.3-.3-.2zM10.6 24.7c-.5.1-1 .2-1.5.4-.6.3 0 1 .4.7.3-.1.7-.3 1-.4.4-.1.9-.2 1.2-.4.1-.1.2-.2 0-.3-.3-.2-.7-.1-1.1 0zM9.9 20.9c.2-.1.2-.4 0-.5-.7-.3-1.6-.2-2.3-.1-.5 0-.4.9.1.8h1c.4-.1.8 0 1.2-.2zM8.5 14.9c.5.1 1 .4 1.5.6l.6.3h.4c.2 0 .3-.1.2-.3-.1-.2-.2-.2-.4-.3-.2-.1-.4-.3-.7-.4-.5-.3-1.1-.6-1.7-.7-.3-.1-.4.7.1.8zM12.9 11.4c0-.8-.6-1.6-.9-2.3-.2-.4-.7-.2-.7.2s.4.9.6 1.2c.2.4.3.8.7 1.1.1.1.3-.1.3-.2zM14.6 5.6c-.4-.3-.7.4-.5.6 0 .1 0 .2.1.2.1.1.1.3.1.4.1.4.3.7.5 1 .1.2.4.2.4-.1 0-.4-.1-.9-.2-1.3-.1-.2-.1-.6-.4-.8zM25.8 8.8c.1 0 .2 0 .2-.1.1-.2.2-.3.3-.4.1-.1.2-.3.3-.4.3-.3-.2-.7-.4-.4-.2.1-.2.3-.4.5-.1.1-.2.3-.2.5 0 .1 0 .3.2.3zM28.6 12.6c.3 0 .6-.2.8-.3.2-.1.3-.2.5-.3.1-.1.3-.2.4-.2.5-.1.3-.8-.2-.6-.2.1-.5.3-.7.5-.3.2-.6.5-.9.6-.2-.1-.2.3.1.3zM27.1 18.2c.3.2.6.3.9.4.2.1.3.1.5.2.1 0 .3.1.3.1.1.1.3.2.4 0 .1-.1.2-.3 0-.5s-.6-.3-.9-.4c-.3-.1-.8-.3-1.1-.3-.2.1-.4.4-.1.5zM26.4 22.8c.1.1.3.2.5.3.1.1.1.1.2.1.1.1.1.2.1.1 0 .1 0 .2.1.2h.3c.2-.1.2-.3.1-.5-.2-.3-.7-.6-1-.8-.3-.2-.6-.7-1-.7-.3 0-.3.3-.2.4.3.4.6.7.9.9zM22.4 24.4c-.2-.3-.3-.6-.6-.7-.1-.1-.3 0-.3.1 0 .2.1.3.2.5l.3.6c.1.2.3.4.5.5.2.2.3.4.5.5.3.3.7-.3.4-.5-.4-.3-.7-.7-1-1zM18.1 14.4c.6-2.6 1-5.2 1.9-7.7.2-.4-.5-.7-.7-.2-.5 1.5-.8 3.1-1.1 4.7-.2 1-.6 2.1-.7 3.2-.1 0-.1 0-.2.1l-.3.3c-.3.3-.2.8 0 1 .4.4 1.1.4 1.4-.1.1-.2.1-.3.2-.5.7-.2 1.4-.6 2-.9 1.1-.4 2.1-.9 3.2-1.4.4-.2.2-.7-.2-.7-.8.2-1.7.8-2.5 1.2-.8.4-1.7.9-2.6 1.2-.1 0-.2-.1-.4-.2zm-.5 1.1c-.1 0-.1-.1 0 0 0-.1 0-.2.1-.2.1.1.2.1.3 0h.1c-.2.2-.3.3-.5.2z"/><path d="M36 16.1c-.1-1.7-.1-3.4-.5-5.1-.3-1.4-1.1-2.7-1.8-3.9-.6-1.2-1.8-2.3-2.9-3.1-.2-.1-.4-.3-.6-.4 0 0 0-.1-.1-.1-.1-.1-.1-.1-.2-.1-1.1-.8-2.3-1.4-3.6-1.9-1.5-.6-3-1.1-4.6-1.3-1.4-.2-3.3-.3-4.7.1-.7 0-1.3.1-1.9.2-3.1.7-5.6 1.9-7.9 4-1.6 1.5-3 3.1-4.1 5-.4.7-.8 1.4-1.2 2.2-.7 1.5-1.2 3.1-1.5 4.7-.3 1.4-.5 3.1-.3 4.6-.1 3.5 1 6.9 3.6 9.4.8.8 1.8 1.5 2.7 2.1 0 .1.2.2.3.2.7.4 1.5.8 2.3 1.1 0 0 .1.1.2.1h.1c1.6.6 3.2 1 5 1.1 1.9.1 3.8.1 5.7-.2 2.4-.3 4.4-1 6.6-2.1 3.9-1.9 6.8-5.7 8.1-9.8v-.2c.4-.8.6-1.6.7-2.5.2-1.4.7-2.7.6-4.1zM31.3 28c-.7.1-1.3.5-1.9.9 1-.9 2-1.9 3.1-2.7-.3.6-.7 1.2-1.2 1.8zm-3.7 3.3h-.1c-.3-.1-.7-.1-1.1-.1.2-.1.4-.1.6-.2.4-.1.9-.2 1.4-.2-.2.2-.5.4-.8.5zm-4.4 2.1c-.6-.3-1.2-.5-1.9-.6h1.8c.5 0 .9 0 1.3.1-.3.2-.7.4-1.2.5zm-2.4.6c0-.1-.1-.1-.2-.1-.8-.2-1.6-.4-2.3-.6 1.4 0 2.8 0 4.1.5-.6 0-1.1.1-1.6.2zm-3.6.2c-.1 0-.1-.1 0 0-.6-.5-1.2-.6-1.8-.8.4.1 1 .1 1.4.1.6 0 1.3.4 1.9.5.2 0 .3.1.5.1h.2c-.8.1-1.5.1-2.2.1zm-7.7-1c-.4-.8-1-1.5-1.7-2.2.8.3 1.4 1.1 2.1 1.6.6.4 1.2.8 1.8 1.3-.7-.2-1.4-.4-2.2-.7zm-2.7-1.4c-.6-1.3-1.7-2.4-2.5-3.6 1.3 1.6 2.9 2.9 4.1 4.5-.5-.3-1-.6-1.6-.9zM2.1 27c-.1-.6-.1-1.4-.1-2.1.1.7.3 1.3.5 1.9l.6 1.8c-.3-.5-.7-1-1-1.6zm-.7-3.8c-.1-.8-.2-1.6-.2-2.2-.1-.7 0-1.5 0-2.3.2-.3.3-.6.5-.9-.1.4-.1.7-.2 1.1-.3 1.5-.2 2.9-.1 4.3zm1-9.7v.3h-.1c-.3.3-.4.7-.6 1-.1.1-.1.2-.2.3.3-.6.6-1.1.9-1.6zm2.2-5.2c-.1.3-.2.6-.3.8-.3.6-.6 1.3-.9 1.9.1-.4.2-.7.2-1.1.3-.6.7-1.1 1-1.6zm10.3-7.1c-.4.2-.8.4-1.1.6-.8.5-1.4 1.3-2.2 1.8-.2.2-.4.3-.7.4.8-.7 1.8-1.5 2.3-2.4.6-.1 1.2-.2 1.7-.4zm14 3.7c-.2-.2-.2-.5-.3-.8l-.3-.6c-.1-.2-.2-.4-.4-.5.2.1.4.2.7.4.1.3.3.5.4.8.2.4.4.9.5 1.3-.2-.1-.3-.2-.5-.3-.1-.2-.1-.2-.1-.3zm1.2-.6c.4.6.6 1.3.9 1.9.1.2.2.5.3.8l-.3-.3c-.3-.3-.6-.6-1-.8-.1-.8-.3-1.4-.7-2.1.3.1.5.3.8.5zm-.6 2c1.6 1 2.7 2.7 3.6 4.4.7 1.4.7 3 .7 4.6V16.5c0 1.8-.2 3.5-.8 5.3-.7 2.1-1.8 3.9-3.2 5.6-2.9 3.7-8.3 5.1-12.9 5-1.1 0-2.1 0-3.2-.1-1.3-.1-2.6-.6-3.8-1-2.2-.7-4.4-2.6-5.6-4.6-2.5-4.1-2.2-9.2-.7-13.6.6-1.1 1.1-2.3 1.8-3.4C6.5 8.3 7.9 7 9.3 6c3.3-2.4 7.1-2.8 11.1-2.7 3.3 0 6.4 1.2 9.1 3zm3.6 2c0-.3-.1-.7-.2-1 .1.1.2.3.3.4 0 .5.2 1 .4 1.4.2.7.3 1.3.4 2-.3-.6-.5-1.2-.9-1.7 0-.3.1-.7 0-1.1zm2.1 8.5c0 .3-.1.6-.1.9l-.1.1c-.2.9-.7 1.7-1 2.5.1-.3.1-.6.2-.9.1 0 .1 0 .2-.1.3-.9.7-1.9.9-2.8-.1.1-.1.2-.1.3zm-.6-1.9c.2-.5.4-1 .5-1.5 0 1.4-.3 2.8-.7 4.2.1-.8.1-1.5.1-2.3v-.2l.1-.2c0 .1 0 .1 0 0zm.6-1.7c0-.1 0 0 0 0zm-.4-1.8c0 .7-.1 1.3-.3 2 0-.4-.1-.8-.2-1.1.1 0 .2-.1.2-.2 0-.7 0-1.4-.1-2 .2.3.3.7.4 1.3 0-.1 0-.1 0 0zM1.7 16.3c-.2.4-.3.8-.5 1.3 0-.6 0-1.2.2-1.7l.7-.7.2-.2c0 .1 0 .2-.1.3-.3.3-.4.7-.5 1zM22.2 1.4c-.4.1-.7.2-1 .2-1 .3-1.9.6-2.9.8-.5.1-1.2 0-1.8.3h-.1c.1 0 .2-.1.3-.1 1.3-.4 2.6-1.4 4-1.4.6.1 1 .2 1.5.2zm2.9 2c-.6-.2-1.1-.3-1.7-.4l.9-.3c.3.2.5.5.8.7zM14.2 3c.1 0 .1 0 0 0-.1.1-.3.2-.5.2.2-.1.3-.2.5-.2zm9.6-1.1c.1.1.2.1.3.1-.8.4-2.1.4-2.7.4h-.9c.9-.3 2.3-.6 3.3-.5zm-5.6-.4c-.5.3-1 .5-1.6.7-.3.1-1.2.5-1.8.6.1 0 .1-.1.2-.1 1.2-.6 2.1-1.5 3.5-1.8.3 0 .5 0 .8.1-.4.1-.8.3-1.1.5zM16 1.2c.1-.1.2-.1.3-.1-.3.3-.7.6-1.2.9-.5.2-1 .5-1.6.7.1-.1.2-.1.2-.2.8-.6 1.6-.9 2.3-1.3zm-5.9 3.6s0 .1 0 0c0 .1 0 0 0 0zm-1.3.7c1-1.2 2.1-2.3 3.3-3.2-.5.5-1 1-1.5 1.4-.7.6-1.2 1.2-1.8 1.8zm-1.1 1c-.5.4-.8.8-1.2 1.2.3-.4.7-.8 1.2-1.2zm-1.5.6c-.3.6-.7 1.2-1.1 1.7l-.1.1v-.1-.1c.2-.3.4-.7.5-1 .4-.7 1-1.6 1.7-2.2-.4.6-.9 1.5-1 1.6zM2 18.8c0-.3 0-.7.1-1 0 .3 0 .7-.1 1zm24.2-15c0-.1 0-.1-.1-.2-.2-.3-.4-.5-.7-.8-.2-.2-.4-.3-.6-.5.1 0 .2 0 .2-.1l.1-.1c.2.2.5.3.7.5.5.4.8 1 1.2 1.5-.3-.1-.5-.2-.8-.3zM22.7 1c.2.1.5.1.7.2-.2-.1-.5-.2-.7-.2zm-14 3.9c-.4.3-.9.8-1.3 1.3.3-.4.8-1.1.5-1.5.9-.8 1.8-1.5 2.8-2-.7.7-1.3 1.4-2 2.2zm-5.3 7c.1-.2.2-.3.3-.5-.2.7-.5 1.5-.8 2.2 0-.3.1-.7.1-.7v-.4c.1-.2.3-.4.4-.6zM.7 17.1c.1 0 .1 0 0 0v0zm1.6 5.7v-.1.1zm1.2 3.5h-.1c-.1-.3-.2-.6-.4-1 .2.3.4.7.5 1zm9.3 7.7l-.2-.2.6.3c-.1 0-.2 0-.4-.1.1.1 0 0 0 0zM10 32s0-.1 0 0l.9.6-.9-.6zm3.6.8h-.3.3zm1.7.6c-.2-.1-.3-.1-.5-.2s-.3-.1-.5-.2c.3.1.7.3 1 .4zM29 29.1c0 .1 0 .1 0 0 0 .1 0 0 0 0zm4.1-3.8s-.1 0 0 0c-.4.2-.8.5-1.1.8.2-.3.4-.7.7-1 .4-.5.8-1.1 1.2-1.6-.3.6-.5 1.2-.8 1.8zm1-2.9c-.5.5-.9 1.1-1.3 1.6.1-.2.2-.5.3-.7.1 0 .2 0 .2-.1.5-.9.8-1.8 1.2-2.7.1-.3.2-.5.3-.8v.3c-.1.9-.5 1.7-.7 2.4zM31.7 5.8c.2.4.4.9.5 1.3.1.4.3.8.3 1.2 0 .1 0 .2.1.3-.2-.4-.5-.7-.8-1.1-.2-.6-.2-1.3-.5-1.8-.1-.2-.2-.4-.2-.5.3.2.5.4.6.6zm-5.1-3.5c.1 0 .1.1.2.1 0 .1 0 .1.1.1.3.4.9.8.9 1.3 0 .2.2.4.3.6 0 .1.1.2.1.3-.1 0-.2-.1-.3-.1 0-.1 0-.1-.1-.2-.5-.6-.9-1.3-1.4-1.9l-.3-.3c.1-.1.3 0 .5.1zm-24 9.3c-.1.3-.1.7-.2 1 0 .1-.1.1-.1.2-.2.4-.5.9-.8 1.4.3-.9.7-1.8 1.1-2.6zm-2 8.6v.3c0 1.4.1 3.5.8 4.8v.4C.8 24 .5 22.1.6 20.2zm4.7 10.6c-.2-.1-.4-.3-.5-.4 0-.3-.3-.5-.4-.7-.4-.7-.7-1.3-.9-2-.1-.2-.1-.3-.2-.5.1.2.2.4.2.6.5 1.1 1.5 2.1 2.2 3.3-.1-.1-.3-.2-.4-.3zm9.2 3.4c-.1 0-.1 0 0 0-.1 0-.1 0 0 0-.1 0-.1 0 0 0l-.1-.1c-.6-.4-1.2-.7-1.8-1.1 1.1.5 2.4.7 3.4 1.1h-1c-.2.2-.3.1-.5.1zm10.8-1.6c0-.1 0-.1 0 0-.6-.3-1.3-.4-2-.4.6-.2 1.3-.3 1.9-.4.5-.1 1.1-.1 1.6 0-.5.3-1 .5-1.5.8zm3.9-2.4H29c-.4 0-.9.1-1.3.2.4-.2.7-.5 1.1-.6.6-.2 1.1-.6 1.7-.9-.4.4-.8.9-1.3 1.3z"/></symbol><symbol id="icon-close" class="svg-icon" viewBox="0 0 40 40"><style>.st0{fill:#fff}</style><path class="st0" d="M33.3 40L20 26.7 6.7 40 0 33.3 13.3 20 0 6.7 6.7 0 20 13.3 33.3 0 40 6.7 26.7 20 40 33.3 33.3 40z"/></symbol><symbol class="svg-icon" viewBox="0 0 59.853458404541016 44.019588470458984" id="icon-eat"><path d="M3.3 37.4h53.4c.7 0 .8-.9.3-1.2-.2-7.2-3.4-13.5-8.1-18.3-3.6-3.7-8.3-6.2-13.6-7.1 0-.7-.1-1.3-.1-2 0-.4-.3-.6-.6-.7h-3.2c0-1-.1-2-.1-2.9.5 0 1.1 0 1.4-.3.8-.5.9-1.5.9-2.3.1-2.5-1.9-2.7-3.9-2.6h-.1c-1.8.1-3.7.1-3.9 2.4-.2 1.9.9 2.4 2.4 2.5-.1 1.1-.2 2.2-.2 3.3-1 0-2.1.1-3.1.1-.4 0-.6.3-.6.7 0 .7-.1 1.3-.2 2-5.5 1.1-10.4 3.8-13.9 8C6 23.6 3.1 29.6 3 36.3c-.4.3-.3 1.1.3 1.1zM27 3.3c-.6-1.6 1-1.8 2.1-1.9h.2c.8-.1 2.9-.5 3 .8 0 .3.1 1.6-.4 1.6h-1.6c-.5 0-3 .1-3.3-.5zm3.1 4.8h-.8c0-.9 0-1.9.1-2.8h.6c0 .9 0 1.9.1 2.8zm-4.6 1.4c2.8-.1 5.7-.1 8.5-.1 0 .4.1.8.1 1.1-1.3-.2-2.7-.3-4.1-.3-1.6 0-3.1.1-4.6.4 0-.3.1-.7.1-1.1zM11.2 19.6c4.6-5.3 11.4-8 18.8-8 7 0 13.6 2.5 18 7.2s7.6 10.6 7.8 17.4H4.2c.2-6.4 3-12 7-16.6zM59.2 40.4c-.3-.6-.5-1.6-1.4-1.5H2.7c-.1-.1-.3-.1-.5-.1-.8.3-1.3 1.4-1.6 2.2-.2.6-.9 2-.3 2.5 0 .3.2.5.5.5h58.4c.4 0 .6-.3.6-.5.1-.1.1-.2.1-.4.1-1-.3-1.8-.7-2.7zM1.4 42.7v-.1l.3-.9c.1-.3.4-1.1.7-1.4h55.3c.1.2.2.3.2.3.1.2.2.5.3.7.2.4.4.9.5 1.4H1.4z"/><path d="M32.2 40c-.1-.1-.3-.2-.4-.1-.3.2-.5.4-.8.7-.1.1-.1.3 0 .5.1.1.3.1.5 0l.6-.6c.1-.2.2-.4.1-.5zM33.6 40.3c-.1-.2-.3-.2-.4-.1-.4.2-.8.5-1 .9-.2.4.3.7.6.3.2-.3.5-.5.8-.7.1 0 .1-.3 0-.4zM35.4 40c-.6.4-1.2.9-1.7 1.4-.3.3.2.8.5.5.5-.5 1-.9 1.6-1.3.3-.3 0-.9-.4-.6zM37.6 40.3c.3-.3-.2-.8-.5-.5-.4.5-.9 1-1.5 1.4-.3.2 0 .8.3.6.6-.4 1.2-.9 1.7-1.5zM39 40.1c-.8.6-1.5 1.3-2.3 1.9-.3.3.1.7.5.5.8-.6 1.5-1.3 2.3-1.9.3-.3-.2-.8-.5-.5zM41 40.2c-.8.6-1.6 1.3-2.4 1.9-.3.3 0 .8.3.6.8-.6 1.7-1.3 2.5-2 .4-.3-.1-.8-.4-.5zM43.3 40c-.9.8-1.8 1.5-2.7 2.2-.3.2 0 .8.3.6 1-.7 1.9-1.4 2.8-2.3.4-.3-.1-.8-.4-.5zM45.2 39.7c-.9 1.1-1.9 2.2-3 3.1-.3.3.1.7.5.5 1.1-.9 2.1-2 3-3.1.2-.4-.2-.8-.5-.5zM46.6 41.3c.1-.2.4-.6.6-.7.1 0 .2-.1.2-.2 0-.3-.2-.5-.5-.4-.2.1-.3.3-.4.4-.2.3-.4.5-.7.8-.4.5-.9 1-1.4 1.6-.3.3.2.8.5.5.4-.4.7-.8 1.1-1.2.2-.4.4-.6.6-.8zM48.7 40c-.9 1-1.7 1.9-2.6 2.8-.3.3.2.8.5.5.9-.9 1.8-1.8 2.6-2.8.2-.4-.3-.8-.5-.5zM50.3 39.9c-.6 1.2-1.5 2-2.5 2.9-.3.3.1.8.5.5 1-.9 2-1.8 2.6-3 .2-.5-.4-.8-.6-.4zM51.7 40c-.5 1-1.1 1.8-1.8 2.5-.3.3.2.8.5.5.8-.8 1.5-1.7 1.9-2.7.2-.4-.4-.7-.6-.3zM53.8 40c-.5.9-1.1 1.8-1.8 2.5-.3.3.2.8.5.5.8-.8 1.4-1.7 1.9-2.6.1-.5-.4-.8-.6-.4zM56 39.8c-.8.9-1.5 1.8-2.3 2.7-.3.3.2.8.5.5l2.3-2.7c.2-.3-.3-.8-.5-.5zM57.2 40c-.7.9-1.5 1.8-2.2 2.7-.3.3.2.8.5.5l2.2-2.7c.3-.3-.2-.8-.5-.5zM58.1 40.6l-1.5 2.1c-.2.3.3.7.6.3l1.5-2.1c.2-.3-.4-.6-.6-.3zM30.7 39.8c-.2-.1-.3 0-.4.1-.1.1-.2.3-.4.4-.4.2 0 .8.3.6.3-.2.5-.4.6-.6.1-.2 0-.4-.1-.5zM28.7 39.6l-.6.6c-.3.3.2.8.5.5l.6-.6c.1-.1.1-.4 0-.5-.2-.2-.4-.2-.5 0zM31.1 36.8h.2c.1.3.5.4.6 0v-.1h.4c.2-.1.4-.1.6-.2-.2.3.2.8.5.5.2-.3.5-.6.7-1 .6-.3 1.3-.6 1.9-.9-.2.3-.4.5-.5.8-.1.1-.1.3 0 .4-.2.1-.4.2-.6.4.5 0 .9-.1 1.4-.1.2-.1.4-.2.7-.3-.1.3 0 .5.4.6.2 0 .3-.1.3-.3h1.4v.2c0 .4.7.4.7 0 0-.1 0-.2.1-.3.6-.2 1.2-.5 1.9-.7-.2.2-.3.4-.5.7-.3.3.2.8.5.5.4-.5.8-1 1.1-1.6.6-.2 1.1-.4 1.7-.7-.3.4-.6.9-.9 1.3-.6.2-1.2.5-1.7.7.5 0 1.1 0 1.6.1.1 0 .2-.1.3-.1.1 0 .2 0 .3-.1.5-.2 1.1-.5 1.6-.7-.2.3-.4.6-.5.8-.2.4.3.7.6.3.4-.6.8-1.2 1.2-1.7l1.8-.9c-.1.2-.3.3-.4.5-.4.5-.8.9-1 1.5-.3.2-.7.3-1 .4h.9v.1c0 .4.6.4.7 0v-.1h.1c.5-.2.9-.5 1.4-.7-.1.2-.2.5-.2.7 0 .2.2.3.3.3h.2c.2 0 .3-.1.3-.2.2 0 .3 0 .5.1.1 0 .2.1.3.1.3-.1.5-.3.8-.4.2.1.4 0 .4-.2.5-.3 1-.7 1.5-1-.1.3-.3.6-.4.9v.2c-.4.2 0 .8.3.6.7-.4 1.3-.9 1.8-1.5-.1.2-.2.5-.3.7-.1.4.5.6.6.2.3-.8.7-1.5 1.2-2.3.1-.2 0-.4-.1-.4-.1-.2-.1-.5-.2-.7-.7 1-1.5 1.9-2.4 2.7.3-.6.6-1.1.9-1.7.5-.5.9-1 1.4-1.6-.1-.3-.1-.6-.2-.9l-.9 1.2c-.1 0-.2 0-.3.1-.2.2-.3.5-.5.7-.6.6-1.3 1.2-2.1 1.7.1-.1.2-.3.3-.4.3-.5.6-1.1 1-1.6.9-.7 1.7-1.4 2.4-2.1 0-.3-.1-.5-.1-.8-.7.8-1.5 1.5-2.4 2.2-.1 0-.2 0-.3.2 0 .1-.1.1-.1.2-.5.4-1.1.8-1.7 1.1.2-.3.4-.5.5-.8.2-.4-.3-.7-.6-.3-.4.6-.9 1.3-1.3 1.9l-1.8.9c.2-.3.5-.6.7-.8l1.2-1.5c2-1.1 3.8-2.4 5.5-3.9 0-.2-.1-.5-.2-.7-1.7 1.5-3.5 2.8-5.4 3.9-.1 0-.2 0-.3.1l-.1.1c-.6.4-1.3.7-1.9 1 .1-.2.3-.3.4-.5.2-.2.1-.4-.1-.5 2.6-1.3 5-2.8 7.2-4.7l-.3-.6c-2.8 2.4-5.9 4.2-9.2 5.7-.1-.1-.4-.2-.5 0-.1.1-.1.2-.2.3-.5.2-1.1.5-1.7.7.2-.3.4-.7.6-1 .1-.1 0-.2 0-.3.4-.2.9-.5 1.3-.7 3.1-1.8 6-4.1 8.8-6.3l-.3-.6c-2.9 2.3-5.7 4.5-8.8 6.3-.8.5-1.7.9-2.5 1.4.2-.3-.2-.8-.5-.4s-.6.7-.8 1.1c-.4.2-.8.4-1.2.5-.4.2-.8.3-1.2.5l1.2-1.5c.2-.2.1-.4-.1-.5.6-.4 1.2-.7 1.7-1.1 2.1-1.3 4.1-2.6 6.1-4.1 1.6-1.2 3.1-2.5 4.8-3.6-.1-.2-.2-.4-.4-.6-3.3 2.2-6.4 4.9-9.8 7.1-1.3.8-2.6 1.7-4 2.6l.1-.1c.3-.3-.2-.8-.5-.5-.4.5-.7 1-1.1 1.4-.6.4-1.2.7-1.9 1 .4-.5.7-.9 1.1-1.4.3-.3-.2-.8-.5-.5-.6.8-1.3 1.6-1.9 2.4-.5.2-.9.4-1.4.5.2-.3.4-.5.6-.8.4-.5.8-.9 1.2-1.4.3-.3-.2-.8-.5-.5l-1.5 1.8c-.3.4-.6.7-.8 1.2-.5.1-.9.2-1.4.3.6-.8 1.2-1.6 1.8-2.5 2.4-1.2 4.7-2.6 7-4 4.4-2.5 8.6-5.3 12.5-8.5-.1-.1-.2-.3-.3-.4l-.1-.1c-3.9 3.2-8.1 5.9-12.4 8.5-2 1.2-4.1 2.5-6.3 3.6-.1-.2-.4-.2-.6 0-.1.1-.2.3-.3.4-.9.5-1.9.9-2.8 1.3.5-.5.9-1 1.4-1.5.3-.3-.2-.8-.5-.5-.6.7-1.3 1.4-1.9 2.1l-.4.4c-.4.1-.9.3-1.3.4.2-.3.4-.5.7-.8.5-.5.9-1.1 1.4-1.6.3-.3-.2-.8-.5-.5-.5.5-.9 1.1-1.4 1.6-.4.5-.9.9-1.2 1.5-.5.1-.9.2-1.4.3.2-.4.6-.7.9-1.1.4-.5.9-1 1.3-1.4.3-.3-.2-.8-.5-.5-.5.6-1.1 1.2-1.6 1.8-.4.4-.8.9-1 1.4-.1.3.3.5.5.3.1.1.2.1.3.1.2 0 .5-.1.7-.1.2-.1.3-.2.6-.2h.2c.5-.1 1-.3 1.5-.4-.1.1-.1.2-.1.4-.1.4.5.6.6.2.1-.3.3-.6.5-.9 1.1-.4 2.1-.8 3.1-1.3-.4.6-.8 1.2-1.3 1.7-.1.2-.1.3 0 .5v.1H29.3c.9-.1 1.3-.1 1.8-.2zm19.4-1.5c.6-.3 1.2-.7 1.7-1.1-.1.1-.1.2-.2.3-.3.4-.5.9-.7 1.4-.5.3-1 .5-1.5.7 0-.1 0-.2-.1-.2.2-.4.5-.8.8-1.1zm-4.9-1.2c.7-.3 1.3-.6 2-.9-.4.5-.7.9-1.1 1.4-.5.3-1.1.5-1.7.8.3-.5.6-.9.8-1.3zm-4.6.8c.2-.3.4-.5.6-.8.6-.3 1.1-.5 1.7-.8-.3.5-.5.9-.8 1.3-.6.2-1.2.5-1.8.7.1-.1.2-.3.3-.4zm-1.2.1c.2-.1.3-.2.5-.2 0 .1-.1.1-.1.2-.2.3-.5.5-.7.8-.6.2-1.1.4-1.7.6 0 0 0-.1-.1-.1.1 0 .3-.3.4-.5.6-.3 1.2-.6 1.7-.8zm-2.3-.7c.6-.3 1.2-.7 1.7-1-.5.6-1 1.2-1.5 1.9-.4.2-.9.4-1.3.6.4-.5.7-1 1.1-1.5z"/><path d="M29.4 31.2c-.4.1-.2.8.2.6 4-1.5 7.6-3.5 11.3-5.6 3.2-1.8 6.3-3.9 9.1-6.3-.1-.2-.3-.3-.4-.5-2.6 2.3-5.5 4.2-8.5 6-3.8 2.2-7.6 4.3-11.7 5.8zM31 28.1c6.3-2.5 12.2-5.7 17.8-9.6l-.5-.5c-5.5 3.9-11.3 7-17.5 9.5-.4.2-.2.8.2.6zM33.7 23.8c4.7-1.8 9.2-4.2 13.6-6.6l-.5-.5c-4.3 2.3-8.7 4.6-13.3 6.4-.4.2-.2.8.2.7zM34.2 20.5c4-1 7.7-2.8 10.9-5.3-.2-.1-.3-.3-.5-.4-3.1 2.4-6.7 4.1-10.6 5.1-.4.1-.3.7.2.6zM34.8 17.9c3.1-.8 5.9-2.1 8.4-4.1-.2-.1-.4-.2-.6-.4-2.4 1.8-5 3.1-7.9 3.8-.5.1-.3.8.1.7zM36 14.9c1.7-.6 3.3-1.4 4.9-2.3-.3-.1-.6-.2-.8-.3-1.4.7-2.8 1.4-4.2 1.9-.5.2-.3.9.1.7zM36.1 13.1c.6-.5 1.3-.8 2-1.1-.3-.1-.5-.2-.7-.4-.6.3-1.1.6-1.7 1-.3.2.1.7.4.5zM30.2 5.5c-.3 0-.5 0-.7.1-.4.1-.2.8.2.6.2-.1.4-.1.6-.1.4.1.4-.5-.1-.6zM29.7 6.4h-.2c-.4.1-.2.7.2.6h.2c.4-.1.3-.7-.2-.6zM29.2 7.8c.1.2.2.3.4.2h.3c.2 0 .3-.3.2-.4-.1-.2-.2-.3-.4-.2h-.3c-.2 0-.3.3-.2.4zM28.6 4c.1-.1.1-.2.2-.3.3-.3-.2-.8-.5-.5-.1.1-.2.3-.3.4-.2.5.4.8.6.4zM29.1 4.1c.2.1.3 0 .4-.1.1-.1.1-.2.2-.3.1-.1 0-.4-.1-.5-.2-.1-.3 0-.4.1-.1.1-.1.2-.2.3-.1.2 0 .4.1.5zM30.1 4.2c.1.1.4 0 .4-.1.1-.3.3-.6.4-.9.1-.2 0-.4-.1-.5-.1-.1-.4 0-.4.1-.1.3-.3.6-.4.9-.1.2-.1.4.1.5zM31.6 3.9c.2-.3.3-.6.4-.9.1-.4-.5-.6-.6-.2-.1.3-.2.5-.3.8-.3.3.3.7.5.3zM31.6 2.2c.4.1.7.3 1.1.4.4.1.6-.5.2-.6-.4-.1-.7-.3-1.1-.4-.5-.2-.6.5-.2.6zM29.6 8.9c-.1.1-.2.2-.3.4-.1.2 0 .4.1.5.1.1.4 0 .4-.1s.1-.2.2-.3c.1-.1.1-.3 0-.5s-.3-.1-.4 0zM30.9 8.8c-.3.2-.5.4-.6.7-.2.4.4.7.6.3.1-.2.2-.3.4-.5.1-.1.2-.3.1-.5-.1 0-.3-.1-.5 0z"/><path d="M31.6 10.1c.1-.2.3-.4.4-.6.3-.3-.2-.8-.5-.5-.2.2-.4.4-.5.7-.2.4.4.8.6.4zM32.7 10.2c.3-.3.6-.6.9-.8.3-.3-.2-.8-.5-.5-.3.3-.6.6-.9.8-.2.3.2.8.5.5zM34 10.6c.2-.5.5-.9.9-1.4.3-.3-.3-.7-.6-.3-.3.4-.6.9-.9 1.4-.2.4.4.7.6.3zM5.6 34.9c-.3.3-.5.7-.8 1-.3.3.2.8.5.5.3-.3.5-.7.8-1 .3-.3-.2-.8-.5-.5zM7.9 34.8c-.1-.1-.4-.1-.5 0-.3.3-.5.6-.8.9-.3.3.1.8.4.5.3-.3.6-.6.8-.9.2-.2.2-.4.1-.5zM9.1 34.4c-.4.6-.9 1.1-1.3 1.7-.3.3.2.8.5.5.4-.6.9-1.1 1.3-1.7.3-.4-.2-.8-.5-.5zM11.2 34c-.6.7-1.1 1.4-1.6 2.2-.2.4.4.7.6.3.4-.7.9-1.4 1.4-2 .3-.4-.1-.9-.4-.5zM13.7 34.7c.3-.3-.2-.8-.5-.5-.8.7-1.4 1.5-2 2.3-.3.3.3.7.6.3.5-.7 1.2-1.4 1.9-2.1zM15 34c-.7.7-1.3 1.5-1.9 2.3-.3.3.3.7.6.3.6-.8 1.2-1.5 1.8-2.1.2-.4-.2-.8-.5-.5zM16.8 33.9c-.5.8-1.1 1.5-1.7 2.2-.3.3.2.8.5.5l1.8-2.4c.3-.3-.3-.6-.6-.3zM19.2 33.4c-.8.9-1.6 1.8-2.3 2.8-.2.4.3.7.6.3.7-1 1.4-1.8 2.2-2.7.2-.2-.2-.7-.5-.4zM21.3 33.3c-.9 1-1.8 1.9-2.7 2.8-.3.3.2.8.5.5.9-.9 1.8-1.8 2.7-2.8.2-.3-.3-.8-.5-.5zM23.4 33.2c-.5.6-1 1.2-1.5 1.7-.4.4-.9.9-.9 1.5 0 .4.7.4.7 0s.8-1.1 1-1.3c.4-.5.8-.9 1.2-1.4.2-.4-.3-.9-.5-.5z"/></symbol><symbol class="svg-icon" viewBox="0 0 99.95683288574219 68.02041625976562" id="icon-feather"><path d="M27.2 43.2c-.4 1.1-2.1.6-1.7-.5 2.3-6.6 3.7-13.6 9.6-18.2.6-.5 1.5-.2 1.5.6 0 1.8.2 3.5 0 5.2l-1.5-.9c3.2-3.6 6.1-7.4 8.5-11.6.3-.6 1.5-.6 1.6.2.3 2.3 0 4.6-.4 6.9-.5-.2-1.1-.5-1.6-.7C48.5 16.4 56 10 64.2 5.1c.6-.4 1.6.3 1.3 1-.7 1.9-1.4 3.8-2.2 5.7-.4-.3-.9-.7-1.3-1C73.7 4.9 86 1.4 99 0c.6-.1 1 .6.9 1.1-1.6 5.6-2.6 11.5-4.7 16.9-2.1 5.4-5.3 10.1-9.9 13.7-.1-.5-.3-1-.4-1.5 1.1.4 2.1 1 3.1 1.5.5.3.6 1 .2 1.4-4.3 3.9-10.4 1.3-15.5 2.4.2-.5.3-1 .3-1.5 2 1 3.9 2.1 5.6 3.7.6.6.1 1.4-.6 1.5-2.2.2-5.7-.4-5.6 2.7 0 .4-.3.8-.7.9-3.2.7-6.4.8-9.3 2.5-2.4 1.4-4.3 3.4-6.7 4.7-4.6 2.5-10 4-15.2 4.7-2.9.4-5.7.3-8.6.1-2.1-.1-4.3-.2-6.4.3-5.3 1.2-8.9 5.2-12.8 8.7-1.6 1.4-3.7 3.1-5.7 4-2 .8-3.9-1-5.9-.1-.9.3-1.5-.9-.9-1.5 1.5-1.5 3.8-2.5 5.6-3.6 2.4-1.5 4.7-3 7-4.6 4.6-3.2 9.1-6.9 12-11.8.6-1 2.1-.1 1.5.9-2.7 4.7-7 8.3-11.3 11.5-2.4 1.8-4.9 3.4-7.5 5.1C5.6 64.9 3 66 1.4 67.6l-.9-1.5c1.1-.5 2.1-.4 3.3-.1 1.5.4 2.3.5 3.7-.4 2.4-1.7 4.5-3.5 6.6-5.5 3.4-3.2 7.5-6.1 12.2-6.8 5-.7 10.1.4 15.2-.4 5.4-.8 11.4-2.6 15.8-6 2-1.5 3.8-3.1 6.1-4 2.5-1 5.2-1.1 7.8-1.7-.2.3-.4.6-.7.9-.2-4.5 4.1-4.1 7.3-4.5l-.6 1.5c-1.5-1.5-3.3-2.5-5.2-3.4-.7-.3-.5-1.5.2-1.6 4.5-.9 11 1.5 14.7-1.9.1.5.1.9.2 1.4-.9-.5-1.7-1-2.7-1.3-.5-.2-1-1-.4-1.5 4.7-3.6 7.8-8.3 9.8-13.9 1.8-5.2 2.8-10.7 4.3-16 .3.4.6.8.9 1.1-12.6 1.2-24.6 4.6-36 10.3-.6.3-1.6-.2-1.3-1 .7-1.9 1.4-3.8 2.2-5.7.4.3.9.7 1.3 1-8 4.7-15.3 10.9-20.5 18.6-.6.9-1.8.3-1.6-.7.3-2 .6-3.9.4-5.9.5.1 1.1.1 1.6.2-2.4 4.3-5.4 8.3-8.7 11.9-.7.7-1.6-.1-1.5-.9.3-1.6 0-3.2 0-4.7l1.5.6c-5.7 4.4-7 11.1-9.2 17.5zm3.5 4.1c4.2-6 10.4-10.2 16.6-13.9 6.3-3.8 12.8-7.1 18.9-11 1-.6.1-2.2-.9-1.5-12.2 7.9-27.6 13.3-36.2 25.6-.6.8.9 1.7 1.6.8zm3.4-3.5c2.3-.4 4.6-.4 6.8-1.1 1.1-.3.6-2.1-.5-1.7-2.2.7-4.5.7-6.8 1.1-1.1.1-.6 1.8.5 1.7zm8.7-4.6h2.9c1.2 0 1.2-1.8 0-1.8h-2.9c-1.1 0-1.1 1.8 0 1.8zm10.1-15.1c1.2-1.5 2.2-3.1 3-4.8.4-1.1-1.3-1.5-1.7-.5-.7 1.6-1.7 3-2.8 4.4-.7 1 .8 1.8 1.5.9zm8.1-5.8c.8-.8 1.3-1.8 1.7-2.9.4-1.1-1.4-1.6-1.7-.5-.3.8-.6 1.5-1.2 2.1-.9.8.4 2.1 1.2 1.3z"/></symbol><symbol class="svg-icon" viewBox="0 0 100.01416778564453 99.98715209960938" id="icon-flower"><path d="M40.8 48.5c.8-.6 2 .5 1.1 1.1-4 3.2-3.6 8.1-.8 12 2.5 3.5 6.8 6.2 11.2 6.1 4.9-.1 9.9-4.5 11.1-9.3 1.1-4.5-1.2-9.2-4.9-11.7-4.3-2.9-9.7-2.8-14.1-.2-.9.5-1.7-.9-.8-1.4 5.6-3.3 12.6-2.9 17.5 1.6 3.8 3.5 5.4 9 3.4 13.8-2.2 5.1-7.9 9.3-13.5 8.7-8.9-.7-19.5-13.4-10.2-20.7zm.5-6.9c-1.2 1.8-2.6 3.4-2.7 5.6 0 1 1.6 1 1.6 0 .1-1.9 1.5-3.3 2.5-4.8.6-.9-.8-1.7-1.4-.8zm7.3-.2c3.4-.5 6.9-.1 9.5 2.4.8.7 1.9-.4 1.1-1.1-3-2.9-7.1-3.4-11.1-2.8-.9.1-.5 1.7.5 1.5zm13.6 4.5c2.7 1.5 4.1 4.4 4.8 7.3.2 1 1.8.6 1.5-.4-.7-3.3-2.5-6.6-5.5-8.3-.9-.5-1.7.9-.8 1.4zm.8 20.8c2.7-1.4 4.1-4.1 4.9-7 .3-1-1.3-1.4-1.5-.4-.6 2.5-1.8 4.7-4.1 6-1 .5-.2 1.9.7 1.4zm-14.8 5.9c3.5.6 7.1.1 10.3-1.4.9-.4.1-1.8-.8-1.4-2.8 1.3-6 1.8-9 1.2-1.1-.2-1.5 1.4-.5 1.6zm-5.3-23.7c-1.9 4-1.4 8.6 1.3 12.1.3.4 1 0 .7-.4-2.5-3.3-3-7.5-1.3-11.3.3-.5-.4-.9-.7-.4zm2.6.7c-1.3 4.2 0 8.6 3.3 11.4.4.3 1-.2.6-.6-3.1-2.6-4.3-6.7-3.1-10.6.1-.4-.7-.7-.8-.2zm2.5-1c.7 3.3 1.9 6.4 3.9 9.2.3.4 1 0 .7-.4-1.9-2.7-3.1-5.7-3.8-9-.1-.6-.9-.4-.8.2zm2.7-.6c1.8 2.5 3.4 5.3 5.8 7.2.4.3 1-.3.6-.6-2.4-1.9-3.9-4.6-5.7-7.1-.4-.3-1.1.1-.7.5zm-13.1-1c-6.3 1.1-12.8-4.6-16.8-8.8-2.6-2.6-4.9-5.4-6.9-8.5-1.5-2.3-2.9-4.8-3.4-7.6-1.1-6 1.6-14.6 9.1-13C25.8 10.4 30.1 16.8 33 22c3.3 6 6.1 13.1 6.6 20.1.1 1 1.7 1 1.6 0-.5-6.9-3.1-13.8-6.2-19.9-3-5.9-7.6-12.7-14.3-14.6-3-.8-6.3-.4-8.6 1.9-2.4 2.4-3.3 6.1-3.3 9.4-.1 7 4.4 13.1 8.8 18 3 3.4 6.4 6.5 10.2 8.8 3.1 1.9 6.7 3.3 10.3 2.6 1 .1.5-1.5-.5-1.3zm9.9-7.4c-3.7-7.5-6.6-16.3-4.9-24.7 1.3-6.1 7.3-16.2 14.8-12.6 3.8 1.8 4.9 6.6 5.2 10.4.4 5-.3 10-1.7 14.8-.7 2.4-1.6 4.8-2.8 7-.8 1.5-1.9 3.1-3.4 3.8-.9.5-.1 1.9.8 1.4 3.6-1.8 5.4-6.9 6.5-10.4 1.7-5.3 2.6-11.2 2.1-16.8C63.9 8.2 62.5 3 58.3.9c-7-3.4-13.6 3.5-16 9.6-3.9 9.9-.6 20.9 3.8 29.9.5 1 1.9.1 1.4-.8zm13.9 1.7c.1-6 3.9-11.7 8.2-15.6 2.2-2 4.8-3.7 7.7-4.4 2.5-.6 5.2-.2 7.6.7 2.5.9 5 2.4 6.4 4.8 1.3 2.3 1.1 5.1.2 7.5-1.7 4.4-6.1 6.5-10.3 7.8-4.8 1.5-9.8 2-14.5 4-.9.4-.5 2 .4 1.6 8.4-3.5 22-2.7 25.8-12.9 1-2.6 1.2-5.6 0-8.1s-3.6-4.3-6.1-5.5c-2.6-1.2-5.6-1.9-8.4-1.7-2.9.3-5.7 1.7-8.1 3.4C64.9 27 60 34.1 59.8 41.3c0 1.1 1.6 1.1 1.6 0zM36.6 52.5c-6.4 2.2-14.3 2.6-17.8 9.3-1.5 2.7-2.7 7-.9 9.8 1.7 2.8 5.4 2.4 8.1 1.6 5-1.5 7.7-5.8 11.7-8.9.8-.6 0-2-.8-1.4-3.7 2.9-6.4 7.2-11.1 8.7-1.7.5-3.9 1.1-5.6 0-1.7-1-1.7-3.2-1.4-5 .8-4.3 3.4-7.6 7.3-9.4 3.5-1.5 7.3-2 10.9-3.3 1-.1.6-1.7-.4-1.4zm3.7 12.4c-3.5 4.7-6.6 10-7.4 15.9-.5 3.7-.3 8.1 1.9 11.3 2.1 3.1 5.8 3.2 8.6 1 3.2-2.4 4.3-6.4 4.5-10.2.3-4.6-.7-9.2-1.3-13.7-.1-1-1.7-.6-1.5.4.9 6.3 3.1 14.4-.7 20.1-1.8 2.8-5.8 4.8-8.1 1.4-1.9-2.7-2-6.4-1.7-9.6.5-6 3.8-11.3 7.2-16 .5-.6-.8-1.4-1.5-.6zm8.3 5c.5 6.1 1 12.3 2.8 18.2C53 93 56 98.5 61.4 99.8c4.8 1.2 7-3.6 6.8-7.7-.3-4.6-1.6-9.3-3.2-13.6-.9-2.4-1.9-4.8-3.3-7-1-1.5-2.3-3.1-4.1-3.4-1-.2-1.4 1.3-.4 1.6 3 .6 4.7 5.4 5.7 7.9 1.6 3.9 2.7 8 3.4 12.2.5 3.1.6 9.4-4.1 8.6-5.1-.8-7.9-6.5-9.3-10.9-1.8-5.7-2.3-11.6-2.7-17.5-.1-1.2-1.7-1.2-1.6-.1zM60.7 68C57.4 71.3 76 80 78 80.8c3.3 1.2 8.2 2.9 11.6.8 2-1.2 2.7-3.8 2.4-6-.4-3.3-2.6-6.2-4.9-8.5-6.7-6.7-16.4-6.6-25-4.5-1 .2-.6 1.8.4 1.6 7-1.7 15.6-2.5 21.6 2.4 2.2 1.8 4.2 4 5.5 6.6 1 2.1 1.5 5.3-.6 6.9-2.5 1.8-6.8.4-9.3-.5-4-1.4-7.8-3.3-11.3-5.6-1.6-1-3.3-2.1-4.7-3.4-.4-.4-.9-.8-1.3-1.3s-.1-.5-.4-.2c.6-.7-.5-1.8-1.3-1.1zm6.5-7.7c6.1 1 12.7.1 18.6-1.5 5.3-1.4 11.8-4 13.7-9.7 3.5-10.6-13.6-6.7-18.4-5.5-4.1 1-8.1 2.2-12 3.8-.9.4-.5 2 .4 1.6 2.8-1.1 5.7-2 8.7-2.9 4.4-1.3 8.9-2.4 13.4-2.6 2.6-.1 7.1 0 6.7 3.7-.6 5.5-6.7 8.2-11.3 9.6-6.1 1.9-13.1 3-19.5 2-.9-.3-1.3 1.3-.3 1.5zm-38.4-7.1c-5.4 0-10.8-.8-16-2.2C8.6 49.9.6 47.3 1.6 41.5 2.6 36 8.2 34.7 13 35c1 .1 1-1.6 0-1.6-4.8-.3-10 .7-12.2 5.5-1.2 2.6-1.2 5.4.5 7.7 1.8 2.4 4.8 3.8 7.5 4.9 3.4 1.3 7 2 10.6 2.6 3.1.5 6.2.8 9.3.8 1.2-.1 1.2-1.7.1-1.7zm4.3-38c-1.5.4.6-4.3.9-4.7 1.5-2.4 3.9-4 6.2-1.7.7.7 1.9-.4 1.1-1.1-3.2-3.3-7-1-8.9 2.4-.9 1.7-2.9 7.7 1.2 6.7.9-.3.5-1.8-.5-1.6zm29.2 2.2c3-1.6 12.9-2.9 11.4 3-.3 1 1.3 1.4 1.5.4 2-7.8-9.5-7-13.7-4.8-.9.4-.1 1.8.8 1.4zm29.4 20.1c1.4.7 3.1 2 2.3 3.8-.4.9 1 1.8 1.4.8 1.2-2.6-.5-4.9-2.9-6-.9-.5-1.7.9-.8 1.4zM13.2 51.4c-.1 2.6.1 5.6 1.9 7.6 1.9 2.2 4.7 2.1 7.2 1.2 1-.3.6-1.9-.4-1.6-2.1.7-4.5 1-5.9-1.1-1.2-1.8-1.2-4.1-1.1-6.2 0-1-1.6-1-1.7.1zm14.2 21.7c-.2 5.6 3.9 10.5 9.7 9.2 1-.2.6-1.8-.4-1.6-4.8 1.1-7.8-3.2-7.7-7.7 0-.9-1.6-.9-1.6.1zm18.2 15.2c2.1 1.7 4.4 1.9 6.8.5.9-.6.1-2-.8-1.4-1.7 1.1-3.2 1-4.8-.2-.9-.7-2 .4-1.2 1.1zm22.2-2c3.8 3.2 7-3.2 7.8-6.2.3-1-1.3-1.4-1.5-.4-.4 1.6-2.7 7.5-5.1 5.5-.9-.7-2 .5-1.2 1.1zM39.4 38.5c.7 1.1 1.2 2.2 1.9 3.2.6.9 2 .1 1.4-.8-.7-1.1-1.2-2.2-1.9-3.2-.6-.9-2-.1-1.4.8z"/></symbol><symbol id="icon-icons-nav-arr" class="svg-icon" viewBox="0 0 22.049999237060547 12"><style>.st0{fill:#c0d1d2}</style><path class="st0" d="M11 12c-.3 0-.6-.1-.9-.4L.4 2.1C-.1 1.6-.1.8.4.4.6.1.9 0 1.2 0c.3 0 .6.1.9.4L11 9.1 19.9.4c.2-.3.5-.4.9-.4.3 0 .6.1.9.4.5.5.5 1.3 0 1.7l-9.8 9.6c-.3.2-.6.3-.9.3z"/></symbol><symbol class="svg-icon" viewBox="0 0 60.00270462036133 70.00362396240234" id="icon-ok-list"><path d="M0 6.8C1.6 14 2 21.5 2.8 28.7c1 8.6 1.9 17.3 3.8 25.7.7 3.1 1.5 6.4 3.2 9.2.7 1.1 2.4.1 1.7-1-1.5-2.4-2.2-5.2-2.8-7.9-.9-3.9-1.6-7.9-2.1-11.8-1.2-8.7-2-17.4-3.1-26.1-.4-3.6-.8-7.1-1.5-10.5-.3-1.3-2.2-.7-2 .5z"/><path d="M1 7.6C13.5 6.7 25.6 2.9 38.1 2c1.3-.1 1.3-2.1 0-2C25.6.9 13.5 4.7 1 5.6c-1.3.1-1.3 2 0 2zM11.3 64c11.7-1.6 23-5.6 34.7-7.2 1.3-.2.7-2.1-.5-1.9-11.7 1.6-23 5.6-34.7 7.2-1.3.2-.7 2.1.5 1.9z"/><path d="M37.1 1c-.8 18.5 1.6 37.9 8.5 55.1.5 1.2 2.4.7 1.9-.5-6.9-17.1-9.2-36.3-8.4-54.6.1-1.3-2-1.3-2 0zM2.1 9.7c2.4-.4 4.7-1.3 7.2-1.3.3 0 .3-.5 0-.5-2.5.1-4.8.9-7.3 1.3-.3.1-.2.6.1.5zM1.9 12.4c1.9-.8 3.8-1.3 5.8-1.3.3 0 .3-.5 0-.5-2.1 0-4.1.5-6 1.3-.3.1-.1.6.2.5zM3 14.2c1.2-.8 2.8-1 4.2-1.3.3-.1.2-.5-.1-.5-1.5.3-3.1.5-4.4 1.4-.2.2 0 .6.3.4zM3 16.1c1.5-.7 3.1-1.3 4.8-1.6.3-.1.2-.5-.2-.5-1.7.3-3.3.9-4.9 1.6-.2.2 0 .6.3.5zM2.7 18.2c1.7-.3 3.4-.8 5.1-1.1.3 0 .2-.5-.1-.5-1.7.3-3.4.8-5.1 1.1-.4.1-.2.6.1.5zM2.4 20.9c1.6-.3 3.1-.6 4.6-1.1.3-.1.2-.6-.1-.5-1.5.6-3 .8-4.6 1.1-.3 0-.2.5.1.5zM3.5 22.7c1.3-.3 2.6-.8 3.8-1.4.3-.1 0-.6-.3-.4-1.2.6-2.4 1-3.7 1.3-.3.1-.1.6.2.5zM3.8 25.1c1.6-.3 3.2-.8 4.8-1.1.3-.1.2-.5-.1-.5-1.6.3-3.2.8-4.8 1.1-.4.1-.3.6.1.5zM19 62.9c.2.5.4 1 .6 1.6.1.4.3.8.4 1.2 0 .1.1.3.1.4 0 .1.1.5.1.1.1 1.3 2.1 1.3 2 0-.1-1.3-.8-2.6-1.2-3.8-.5-1.2-2.5-.7-2 .5z"/><path d="M21.5 67.6c11.3-1.3 22.7-3.5 33.3-7.6 1.2-.5.7-2.4-.5-1.9-10.4 4-21.7 6.3-32.8 7.5-1.2.2-1.2 2.2 0 2zM37.7 10.3c1 0 2-.1 3-.2.8-.1 1.8 0 2.6-.2.7-.2 1-1.1.4-1.7-.2-.1-.5-.2-.8-.2-1.3 0-1.3 2 0 2h.1c-.2-.1-.5-.2-.7-.3.1-.6.3-1.1.4-1.7-.1 0 .2 0 0 0s-.4 0-.6.1c-.5 0-1.1.1-1.6.1-.9.1-1.9.2-2.8.2-1.3 0-1.3 2 0 1.9z"/><path d="M42.3 10.4c2.6 10.1 4 20.6 5.3 30.9.4 3.6.9 7.3 1.8 10.8.7 2.7 1.7 5.9 4.1 7.7 1 .8 2.4-.6 1.4-1.4-2.5-1.9-3.3-5.4-3.9-8.2-.8-3.5-1.2-7-1.6-10.6-.5-4.4-1.3-8.9-2-13.3-.8-5.5-1.7-11-3.1-16.4-.3-1.3-2.3-.7-2 .5z"/><path d="M44.4 15.5c1.2-.3 2.5-.4 3.8-.4l-1-1c1 9.5 3.6 18.6 5.2 27.9.6 3.7 1.1 7.4 1.8 11 .6 2.9 1.4 6 3.4 8.3.8 1 2.3-.4 1.4-1.4-1.9-2.3-2.5-5.6-3.1-8.4-.7-3.5-1.1-7-1.7-10.5-1.6-9-4.1-17.8-5-26.9-.1-.5-.4-1-1-1-1.5 0-2.9 0-4.3.4-1.3.4-.8 2.3.5 2z"/><path d="M25.8 66.2c.1.9.3 1.8.4 2.8 0 .5.4 1 1 1 11-.1 21.7-4.1 32.1-7.2 1.2-.4.7-2.3-.5-1.9-10.2 3-20.8 7-31.6 7.1l1 1c-.1-.9-.3-1.8-.4-2.8-.1-1.2-2.1-1.3-2 0zM12.9 38.5c2.5 1.3 4.7 2.8 7.3 3.8 1 .4 2.2-.4 2.5-1.4 2.1-8.3 3.2-17.4 7.5-25 1.2-2.2-2.2-4.3-3.5-2-4.4 7.9-5.7 17.3-7.9 25.9.8-.5 1.7-.9 2.5-1.4-2.3-.8-4.2-2.3-6.4-3.4-2.3-1.1-4.3 2.3-2 3.5z"/></symbol><symbol class="svg-icon" viewBox="0 0 98.12599182128906 100.11885070800781" id="icon-paper"><path d="M98 45.6c-.5 3-.9 6.1-1.6 9.1-1.3 5.7-3.4 11-7.9 15.1-6.8 6.2-15.1 5.8-20.9-1.3-2.3-2.9-4-6.3-6.6-9.3 2.2 5.8 3.9 11.7 6.6 17.2 2.8 5.7 6.6 10.9 9.9 16.3.4.7.6 1.6.9 2.5-.8.2-1.6.6-2.4.6-15.8-.2-31.5.9-47 3.9-2.4.5-5 .4-7.5.3-5.5-.2-9-3.5-11.2-8.1-4.7-9.7-9.2-19.5-10-30.5-.7-11.4-1-22.8 2.9-33.7 2-5.7 4.3-11.3 6.4-16.9 2-5.2 6-7.3 11.3-7.5 1.8-.1 3.7-.2 5.5-.1C41.7 4.7 56.6 1.9 71.7.4c2.7-.3 5.6-.7 8.3-.2 2.2.4 4.6 1.6 6.3 3.2 4.1 3.6 6.4 8.6 7.8 13.8 1.5 5.4 2.3 10.9 3.4 16.4.1.7.3 1.5.5 2.2v9.8zM31.9 82c1.7 4.5 3.3 8.7 5 13.2.7-.1 1.8-.2 3-.3-.9-4.8-4.6-8.6-4.2-13.5.1-.7.9-1 1.3-.4 3.3 4 4.7 8.7 6.1 13.7.9-.1 1.9-.3 3.1-.4 0 0-2.4-7.1-4.1-9.9-.7-1.2-.8-2-.5-2.6.6-1.1 2-.4 2.6.8.6 1 1.1 2 1.6 3 .7 1.5 1.3 3.1 2.1 4.7.6 1.3 1.4 2.6 2.1 3.9l.8-.4c-1.4-3.6-2.9-7.1-4.3-10.8-.3-.8.1-1.7.9-2.1l.5-.2c.8-.4 1.8.1 2.1.9 1.6 4.1 3.1 8 4.6 12.1.6-.1 1.3-.1 2.4-.2-.4-1-.7-1.8-.9-2.6-1-3.3-2-6.7-2.9-10v-.3c.1-.7 1.1-1.1 1.7-.6.2.1.3.2.3.4 1.5 3.5 3.1 7 4.2 10.7.7 2.1 1.6 2.5 3.6 1.9-1.4-3.5-2.8-6.8-4-10.3-.2-.5 0-1 .2-1.6.3-.8 1.3-1.2 2.1-.8.3.2.6.4.8.7 1.4 2.6 2.6 5.3 3.9 8 2.2 4.6 2.5 4.8 7.9 3.7-.3-.5-.5-.9-.7-1.3-9.9-14-15.5-29.5-16.7-46.6-.9-12.2 1.4-23.8 8.1-34.3 1.5-2.4 3.4-4.6 5.2-7.1-3.1.3-6.1.7-9.2.9C47.9 5.1 35 6 22.1 6.8c-4.2.3-7.3 2.2-9.3 5.9-6.9 12.9-10.7 26.4-10 41.2.6 13.4 4.6 25.6 11.1 37.1 1 1.8 2.6 3.2 3.9 4.9.4-.3.3-.2.7-.4-.3-.5-.5-1-.8-1.5-1.6-3.2-3.2-6.4-4.6-9.7-.2-.4-.1-.9.1-1.4.2-.6.8-1 1.5-.9.4.1.7.2.9.4 2.3 4.6 4.5 9.3 7 14.3l1.8-.1c-2.3-4.9-4.7-9.5-6-14.4-.2-.7.7-1.2 1.2-.6 3.5 4.2 4.9 9.6 7 14.8.5-.1 1.2-.2 1.8-.3-1.2-4.6-4.5-8.3-4.7-13.1 0-.7.9-1 1.3-.4 2.7 4.1 4.4 8.7 6.5 13.3 1-.1 2-.3 2.8-.4-1.7-3.3-2.8-6.8-4.3-9.8-.8-1.6-1.3-2.5-.1-3.9.4-.9 1.7-.7 2 .2zm63-41.4c-.2 0-.4-.1-.7-.1-.1-9.4-1.4-18.5-4.7-27.3-1-2.5-2.5-4.9-4-7.2-2.9-4.5-9.9-4.2-12.7-.7-1.7 2.1-3.7 4.1-5.4 6.3-10.5 14.1-8.4 40.4 1 52.6 2 2.6 4.7 4.8 7.5 6.6 3.8 2.4 7.9 1.6 10.7-1.9 1.9-2.4 3.8-5.1 4.5-8 1.7-6.7 2.6-13.5 3.8-20.3z"/><path d="M41.6 28.7c-.6-.4-1.2-.8-1.9-1.3.6-.6 1.1-1.7 1.7-1.8 2.9-.3 5.9-.4 8.8-.3.5 0 1 .9 1.5 1.4-.5.4-1.1 1.2-1.6 1.2-2.8.1-5.5.1-8.3.1 0 .3-.1.5-.2.7zM28.5 24.9c1.2.6 3.5 1.3 3.4 1.9-.2 2.3-2.3 1.2-3.6 1.4-.6.1-1.3.2-1.8 0-.7-.3-1.4-.9-2.1-1.3.7-.5 1.3-1.1 2-1.4.5-.2 1.2 0 1.8 0l.3-.6zM16.1 29c-.6-.1-1.5-.1-2.1-.4-.4-.2-.4-1-.6-1.5 1.4-.3 2.8-.9 4.2-1 .7-.1 1.4.6 2.1 1-.3.5-.5 1.4-.9 1.6-.8.3-1.7.2-2.7.3zM69.4 39.2c.8-4.3 1.2-7.9 2.3-11.2 1.1-3.7 3.5-4.5 7.1-3.2 2.9 1.1 5 3.1 6.1 6 2.5 6.3 2.3 12.6-.7 18.7-1.1 2.3-2.8 4.3-5.7 4.2-2.8 0-5.3-1.5-6.2-4-1.3-3.5-2-7.4-2.9-10.5zm3-.8c.5 2.8.8 5.4 1.3 8 .4 2.1 1.8 3.3 4 3.3s4.5-.3 5-3c.6-3.2 1.4-6.4 1.3-9.6-.1-3.8-1.4-7.3-5.2-9.1-2.6-1.3-4.2-.9-4.9 1.9-.8 2.8-1 5.7-1.5 8.5z"/></symbol><symbol id="icon-pdf" class="svg-icon" viewBox="0 0 90.19999694824219 100.04141235351562"><style>.st0{fill:#5fb118}</style><path class="st0" d="M72.1 57.7l-.6-.2.4-.3.2-.6-.6-.2-17.3 10h.2c.3-.2.5-.3.8-.5l.3.4.7-.4.2.4.9.1.1.3h.1l.7-.4c.5 0 .9 0 1.4.1l12.3-8 .2-.7zM54.9 70.7l.3.5.8-.4c-.4-.1-.7-.1-1.1-.1zM58.4 58.1l2.4-1.4c.5.1.9.1 1.4.2l9.7-5.9.2-.6-.6-.2-.8.4.1-.4-.6-.2-12.7 7.3c.3.3.6.6.9.8zM35.5 61.1h-1.3l-.2-.4c-.3.2-.7.4-1 .6l.1.1-.2.1.2.3-.4.2v.8l2.9-1.8-.1.1zM54 73.3l3.9-2.6h-.6l-.2-.5-1 .6H56l-2 1.4h.2c-.1.4-.1.7-.2 1.1zM41.5 58.6c.1.2.2.5.2.7h.7v.1l13.5-8.6.1-.6-.6-.2-14.6 8.4.7.2zM33 63.2l-.2.1v.9l4.9-2.8s0-.1-.1-.1H36.2c0-.1-.1-.1-.1-.2L33 63.2zM55.2 56.9h.2l.2-.1c.4 0 .7 0 1.1.1l.1.1 9.9-6.1.2-.6-.6-.2L55 56.6l.2.3zM43 60.7c0 .2-.1.4-.1.7l.7.1c.1.4.2.8.4 1.2l5.3-3.3c.2-.6.3-1.3.5-1.9l.3-.1-.1-.4.4.1.4-.2c.5 0 .9 0 1.4.1.1.2.1.3.2.5L63 50.9l.2-.6-.6-.2-.6.3v-.1l-.4-.3h-.3L43 60.7zM62.4 60.9l.2-.1s-.1 0-.2.1zM72.1 63.9l-.6-.2-9.5 5.5c-.1.3-.2.6-.2.9-.1.1-.3.1-.4.2l-.1.4-.4-.1-.2.1c-.4 0-.8-.1-1.2-.1l-5.4 3.1.2.3-.1.1v.1l-.4.8 1.9-1.1-2 1.3-.4.9.6.1 18-11.6.2-.7zM49.3 71.3v-.2l-.1-.2.2-.1v-.3l-.2-.5.2-.1-.2-.4.2-.1v-.2l-4.9 2.9v.2l.3.4-.6.3c-.1.5-.3 1.1-.4 1.6l5.5-3.2v-.1zM72.1 52.2l-.7-.2-9 5.2.1.4.6.1c0 .3.1.6.1.9l.3.1-.2.6v.1l.2.3-.3.2-.2.7 9-5.6.2-.6h-.1l.2-.2v-.4h-.1l.1-.1v-.4l-.5-.3h-.3l.4-.2.2-.6zM49.4 69l.7-1.7-.7-.1v-1.5l-.2-.4.2-.1v-.4l-1.6.9 1.6-.9v-.3l-.2-.5.2-.1v-.8h-.1v-.2l-.1-.2.1-.1h-.1l.1-.4-4.8 2.8v.5h.2v.7l.3.1v.2l.1-.1-.2.3c0 .2-.1.3-.1.5l.1.2-.1.1v.3l.2.3h-.1l.1.1-.1.1v.1l-.2.3.5-.3-.6.8c0 .5 0 1 .1 1.5-.1.1-.1.2-.2.3l4-2.3-4 2.3c0 .4 0 .8-.1 1.1l5-3.1zM54 71l-.5 1.1h.1l1.4-.8zM54.2 61.5l.1.2-.3.1v.1l1.4-.8-.7-.2-.5.6zM37.7 75.5l.1.4.8-.5v-.5l-.1-.2-1.3.8h.5zM49.2 61.3l.2-.1-.2-.3.1-.1.2-.9-5.6 3.1c-.1.3-.2.6-.3.8l.5.1.8-.5-.5.7v.4l5-3.1-.2-.1zM54.1 62.6l.2.4-.2.1v.9l.2.4-.2.1.1.6-.4 1.1.1.1 8.1-5c-.3 0-.6-.1-.9-.1l-.2.1c-.5-.1-1-.1-1.5-.2l-.3.2v-.1l-.2.1c-.4 0-.7 0-1.1-.1-.6-.4-1.1.4-1.7 0l-.3-.1-1.7 1c-.1.1 0 .3 0 .5zM62.1 68l9.8-6.5.1-.6-.6-.2-10.3 6h.6c.1.4.3.9.4 1.3zM28.6 79.8l-.3-1.5.8-1.9-.4-.1-15.8 9.6-.2.6.6.2 1.3-.8-.2.6.6.2.3-.2.3.2h.3l.4-.2.3.2h.3l11.8-6.8c.1-.1 0-.1-.1-.1zM36.9 71.2l-4 2.4v.1l.2.4-.1.1v.1l-.6 1.3 1 .1v.1l.4-.2c.5 0 1 .1 1.5.1v.2l.9-.5h.2l2.9-1.7.2-.2v-.8c.2-.3.4-.5.6-.8 0-.4-.1-.9-.1-1.3l.2-.3.2-.3-.2-.1.1-.6h-.1l.1-.5-.3.2.3-.4-.3-.5.2-.1v-.1l-.2-.3h.1l-.1-.1-3.2 1.8 3.3-2v-.2l.1-.1-.3-.9.3-.9-7.3 4.2 7.3-4.5H40c-.2-.4-.3-.9-.5-1.3 0-.2.1-.5.1-.7h-.4l-6.9 4-.2.5.8.2v.8l1.6-.9-1.5.9c0 .2-.1.5-.1.7l.2.3-.2.1v.3l.2.4-.2.1.1.2 5.2-3-5.1 3.1-.2.1.1.3-.6 1.3.6.1c0 .4-.1.8-.1 1.2l4-2.4zM17.3 70.9l-.1-.2-1.5.9c-.5 0-.9 0-1.4-.1l-.2-.4H14l.5 1-1.5-.4-.2.5.6.1c0 .2 0 .5-.1.7l4-2.1zM28.4 66.8v-1.1l-4.1 2.4 4-2.5-.2-.3.2-.1v-.7l-.2-.3.2-.1v-.5L23.9 66c-.1.3-.2.6-.3 1l-.5.3v.3l4.7-2.7-4.8 3c0 .1 0 .2-.1.4l.3.5c-.4.2-.9.5-1.2.8v.2c-.8.4-1.6.9-2.3 1.5l-.3-.4-.6.3h-1.2l-4.2 2.6.2.4-.1.1v.1l-.6 1.4 15.5-9zM35.4 79.2l-1.1.6c-.5 0-1-.1-1.5-.1v-.2l-.6.4c-.5-.1-1-.1-1.6-.2v-.1l-.4.2-9.5 5.9-.2.6.6.2 1.4-.8-.2.6.6.2 12.5-7.2v-.1z"/><path class="st0" d="M38.3 62.1h-.2c-.1-.2-.3-.5-.4-.7l-4.8 3.1.1.1-.2.1.1.6-.2.4 5.6-3.6z"/><path class="st0" d="M89.3 27.4L63.4 1.1 61.8 0c-9-.1-18 0-27 .1-9 0-18 .2-27 .3H6.6v1.2L6.7 51l-3.1 1.8 2-1.9.1-.6-.6-.1-2.9 1.7.8-1v-.6l-.6-.1-1.1.6v-.1l-.1-.5H.7l-.5.3-.2.5h.2l-.2.6.1.5h.5l.2-.1-.8 1v.6l.6.1 1.4-.8-2 1.9-.1.6.6.1 3.4-2-4 3.4-.1.6.6.1 6.1-3.5v.1l-6.6 5.3-.1.6.6.1 6.1-3.5v.2l-6.6 4.7.1.6.6.2 6.1-3.5v.5L.1 64l-.1.5h.1l-.1.6.6.2 6.1-3.5v.9L.1 67.3l-.1.5.7.2 6.1-3.5V66L.2 70.6l-.2.5.6.2 6.1-3.6v.5L.1 72.4 0 73l.6.2-.4.3-.2.6.6.2 6.2-3.6v1.5L.1 76.6l-.1.6.6.2 6.2-3.6v1.6L.1 79.7l-.1.7.6.2L6.8 77v.9L.2 82l-.2.7.6.2 6.2-3.6v1.9L.1 85.5 0 86l.3.1v.5l.3.2h.3l5.9-3.4v1L4.3 86l-.2.6.6.2 2.1-1.2.2 13.7v.7h.7l81-.6.5-17.8.3-17.6c.3-11.8.3-23.5.5-35.3l-.7-1.3zM4.7 54.2l2-1.7v.5l-2 1.2zm.7 2.3l1.3-1.1v.3l-1.3.8zm58-51L85 27.3l-21.6-.1V5.5zm-55 93.1l.1-12 .2.1 1-.6-.1.4.6.2 18.1-10.5h-.1c0-.4.1-.9.1-1.3v-.1l-.2-.4.2-.1v-.1l.4-.9L8.5 85.7v-1.1l20.3-11.7-.5-.1V72h-.1c0-.2.1-.4.1-.7l-.1-.1L8.5 83.3v-1L28.1 71v-.1l.2-.1v-.3l-.2-.4.2-.1-.2-.4.2-.1v-.2l.1-.2-10 5.8 10.3-6.6.4-1-.4-.1-15.1 9.6v.1l.2.1-.3 1 .2.4-.4.2-.1.4c-.3.2-.5.3-.8.5l-.5.6-.4-.3c-.3 0-.5-.1-.8-.1v.1c-.4-.2-.8-.2-1.3-.3l-1 .6v-1.8l.3-.2v-.2l.7-1.6h-.1l-.9.5v-.9l.3-.2c0-.3.1-.6.1-.9v-.1l-.2-.4.1-.1V74l-.3.2v-1.5l.2-.1.1-.7h-.1l.1-.6V71l-.2.1v-1.4l.3-.2v-.2l.8-2-.7-.1v-.4l-.4.2v-.4l.4-.2v-.8l-.2-.4.2-.1v-.7l-.3.2v-1.3l.3-.2h-.1v-.2l-.1-.2.1-.1h-.1l.2-.9-.2-.4.2-.1v-.1l-.3.2v-.7l.2-.1.2-.9-.3-.1c.2-.6.3-1.2.5-1.9l-.6.4v-.3l.8-.5V57h.2l1.1-.6-.7.7.3-.2c.5 0 .9 0 1.4.1l8.9-6.1.1-.6-.7-.2-11.1 6.4 8-5.6.1-.6-.6-.2-7.7 4.5v-.7l3.7-3 .1-.6-.6-.1L8.7 52v-1l.1-.6h-.1l.2-47.5c8.6.1 17.2.3 25.8.3 8.5 0 17 .1 25.4.1l.1 25.5v1.6h1.6l25.4-.2c.1 11.3.2 22.5.4 33.8l.4 17.7.5 17.5-80.1-.6z"/><path class="st0" d="M72 84.3h-.5l-1 .6 1.6-2.5v-.1l.1-.1v-.4h-.1l-.1-.1.1-.1.1-.6H72l.1-.3-.5-.1.3-.2.1-.6v-.1l-.6-.2-6 3.5 6.5-5.2.1-.6-.6-.1-9.6 5.6L72 74.5l.1-.6-.6-.1-8.2 4.8 8.7-5.8v-.1l.2-.2v-.8l-.3-.2h-.3l-16.9 9.8L72 68.7l.1-.6-.6-.1-7.3 4.2 7.7-4.8v-.1l.2-.2v-.8l-.3-.3h-.3L54 76.2c0 .3.1.6.1.9l.3.1-.2.7.1.2-.2.1-.2.9c-.2.1-.5.3-.7.4l-.2.1 11-6.3-17.4 12.6-.1.6.5.1.1.1h.8L59.3 80l-8.7 5.8-.1.6.6.2L66 78l-10.1 7.9-.1.6.6.1 10.4-6-6.5 5.2-.1.6.6.1H61.1l1.2-.7-.1.5.6.2.2-.1.4.1.8-.5v.4h.1l.2.2h.3l5.5-3.2-1.6 2.6.1.6.6.1 1.6-.9-.1.4.2.5h.5l.5-.3.2-.6-.2-.1.3-.8-.4-.6z"/><path class="st0" d="M52.5 79.9c-.4 0-.7-.1-1.1-.1l-.2.1c-.5-.1-1-.1-1.5-.2l-.3-1.5.1-.2-12.2 7.9-.1.6.6.2.1-.1.2.1h.4l9.7-5.6-7.7 4.8-.2.6.6.2 11.6-6.8zM50.2 76.3l-.3-.1-2.7 1.6 2.5-1.6-.3-.1c0-.3.1-.6.1-.9L33.2 85.9l-.1.6.6.2 16-9.3.5-1.1zM49.2 74.3l.2-.1v-.1l.4-.8-6.6 3.8 6.6-4.3-.4-.1c0-.3 0-.5.1-.8l-5.9 3.9.1.1c-.3.1-.6.3-.8.5l-.2.9c-1.4.7-2.8 1.6-4.1 2.5l-.3-.4L28 85.9l-.1.6.6.2 20.9-12.1-.2-.3zM39.8 57.5c.1.2.2.5.4.7l11.7-7.3.2-.6-.6-.2-12.8 7.4h1.1zM15.2 56.9c.3.1.7.1 1 .2l.2-.1h.2l8.8-6.1.1-.6-.5-.2-.3.2-.7-.2-12.3 7.1c.1.3.2.6.3.8.8-.4 1.6-.9 2.3-1.4l.3.4.2-.3.4.2.1-.2-.1.2zM24.1 65.4l4.1-2.6.1-.1h-.1l.2-.9-.1-.2-5 3.2.9.2c-.1.1-.1.2-.1.4zM19.6 57.3c.2.2.3.4.5.5l10.1-7 .1-.6-.6-.2-12 6.9c.1.2.3.4.4.6l.4-.2h.5l1.1-.6-.9.6h.4zM22.9 60.2c-.1.4-.1.9-.2 1.3l4-2.3-3.6 2.4.6.1.4-.2-.2.4v.4l4.2-2.8c.2-.6.3-1.2.5-1.8l.2-.1.1-.3.4.1.4-.2c.5 0 .9 0 1.4.1 0 .1.1.2.1.3l9.8-6.4.1-.6-.6-.2-1.3.8.2-.6-.6-.2-16.1 9.3s.1.2.2.5zM34.1 57h.1l.8-.5.2.4h.7l.2.3.2.1.3-.2h.1l9.7-6.3.1-.6-.5-.1L34.1 57zM22.3 58.6v.3h.1c.1.1.1.3.2.4L36 50.8l.1-.6-.6-.2L21 58.4c.4.1.9.2 1.3.2zM28.2 61.4l.2-.2-.2-.3.1-.1.1-.5-4.4 2.5c0 .2 0 .3.1.5l-.5.9 4.6-2.8zM16.1 60.5l-.6.4-.2.1-1.8.3-.2.1.2.3-.2.3v.5l2.8-2c0 .1 0 0 0 0zM16.5 67.6h.2l1.3-.7h.5l.9-1.5-3.2 1.9h.3v.3zM19.7 62.4l-1-.2v-.5c-.2-.2-.3-.4-.5-.5 0-.1 0-.2-.1-.3l-.4.2c-.4 0-.8 0-1.2.1l-.1-.1-3.1 1.8.2.3-.2.1v.6l2.2-1.3-2.1 1.4v.2l.2.4-.2.1.1.6-.8 1.9.4-.3v.1l6.4-3.7c.2-.3.2-.6.2-.9zM14.6 67.4c.3-.2.5-.3.8-.5l.2.4h.4l3.8-2.5.2-.3c-.1-.2-.2-.5-.3-.7l-5.3 3.5.2.1z"/></symbol><symbol id="icon-search" class="svg-icon" viewBox="0 0 34 36"><style>.st0{fill-rule:evenodd;clip-rule:evenodd;fill:none}</style><path class="st0" d="M20.2 0C12.6 0 6.4 6.2 6.4 13.8c0 3.3 1.1 6.3 3.1 8.7L0 31.9 4.1 36l9.9-9.9c1.9.9 4 1.5 6.2 1.5 7.6 0 13.8-6.2 13.8-13.8S27.8 0 20.2 0zm0 22.8c-5 0-9-4-9-9s4-9 9-9 9 4 9 9-4 9-9 9z"/></symbol><symbol id="icon-test-close" class="svg-icon" viewBox="0 0 42 42.14500427246094"><style>.st0{fill:#abacaf}</style><path class="st0" d="M0 40.587L40.656-.073 42 1.273 1.343 41.93z"/><path class="st0" d="M0 1.413L1.34.07l40.66 40.658-1.345 1.344z"/></symbol><symbol class="svg-icon" viewBox="0 0 100 100" id="icon-youtube"><path class="st0" d="M41.5 60.3l21.1-11-21.1-11z"/><path class="st0" d="M50 0C22.4 0 0 22.4 0 50s22.4 50 50 50 50-22.4 50-50S77.6 0 50 0zm32.6 52.5c0 5.3-.7 10.5-.7 10.5s-.6 4.5-2.6 6.5c-2.5 2.6-5.3 2.6-6.5 2.8-9.1.6-22.8.6-22.8.6s-16.9-.2-22.1-.7c-1.4-.3-4.7-.2-7.2-2.8-2-2-2.6-6.5-2.6-6.5s-.7-5.3-.7-10.5v-4.9c0-5.3.7-10.5.7-10.5s.6-4.5 2.6-6.5c2.5-2.6 5.3-2.6 6.5-2.8C36.3 27 50 27 50 27s13.7 0 22.8.7c1.3.2 4 .2 6.5 2.8 2 2 2.6 6.5 2.6 6.5s.7 5.3.7 10.5v5z"/></symbol></svg>